<svg xmlns="http://www.w3.org/2000/svg" xmlns:wrs="http://www.wiris.com/xml/mathml-extension" height="65" width="114" wrs:baseline="50"><!--MathML: <math xmlns="http://www.w3.org/1998/Math/MathML"><mfrac><msqrt><msqrt><msqrt><msqrt><msqrt><msqrt><mn>5</mn></msqrt></msqrt></msqrt></msqrt></msqrt></msqrt><mn>8</mn></mfrac></math>--><defs><style type="text/css"/></defs><line stroke="#000000" stroke-linecap="square" stroke-width="1" x1="2.5" x2="110.5" y1="44.5" y2="44.5"/><polyline fill="none" points="12,-36 11,-36 5,0 2,-14" stroke="#000000" stroke-linecap="square" stroke-width="1" transform="translate(4.5,40.5)"/><polyline fill="none" points="5,0 2,-14 0,-12" stroke="#000000" stroke-linecap="square" stroke-width="1" transform="translate(4.5,40.5)"/><line stroke="#000000" stroke-linecap="square" stroke-width="1" x1="16.5" x2="108.5" y1="4.5" y2="4.5"/><polyline fill="none" points="12,-32 11,-32 5,0 2,-13" stroke="#000000" stroke-linecap="square" stroke-width="1" transform="translate(18.5,40.5)"/><polyline fill="none" points="5,0 2,-13 0,-11" stroke="#000000" stroke-linecap="square" stroke-width="1" transform="translate(18.5,40.5)"/><line stroke="#000000" stroke-linecap="square" stroke-width="1" x1="30.5" x2="106.5" y1="8.5" y2="8.5"/><polyline fill="none" points="12,-28 11,-28 5,0 2,-11" stroke="#000000" stroke-linecap="square" stroke-width="1" transform="translate(32.5,40.5)"/><polyline fill="none" points="5,0 2,-11 0,-10" stroke="#000000" stroke-linecap="square" stroke-width="1" transform="translate(32.5,40.5)"/><line stroke="#000000" stroke-linecap="square" stroke-width="1" x1="44.5" x2="104.5" y1="12.5" y2="12.5"/><polyline fill="none" points="12,-24 11,-24 5,0 2,-9" stroke="#000000" stroke-linecap="square" stroke-width="1" transform="translate(46.5,40.5)"/><polyline fill="none" points="5,0 2,-9 0,-8" stroke="#000000" stroke-linecap="square" stroke-width="1" transform="translate(46.5,40.5)"/><line stroke="#000000" stroke-linecap="square" stroke-width="1" x1="58.5" x2="102.5" y1="16.5" y2="16.5"/><polyline fill="none" points="12,-20 11,-20 5,0 2,-8" stroke="#000000" stroke-linecap="square" stroke-width="1" transform="translate(60.5,40.5)"/><polyline fill="none" points="5,0 2,-8 0,-7" stroke="#000000" stroke-linecap="square" stroke-width="1" transform="translate(60.5,40.5)"/><line stroke="#000000" stroke-linecap="square" stroke-width="1" x1="72.5" x2="100.5" y1="20.5" y2="20.5"/><polyline fill="none" points="12,-16 11,-16 5,0 2,-6" stroke="#000000" stroke-linecap="square" stroke-width="1" transform="translate(74.5,40.5)"/><polyline fill="none" points="5,0 2,-6 0,-5" stroke="#000000" stroke-linecap="square" stroke-width="1" transform="translate(74.5,40.5)"/><line stroke="#000000" stroke-linecap="square" stroke-width="1" x1="86.5" x2="98.5" y1="24.5" y2="24.5"/><text font-family="Arial" font-size="16" text-anchor="middle" x="92.5" y="39">5</text><text font-family="Arial" font-size="16" text-anchor="middle" x="56.5" y="61">8</text></svg>