<svg width="282" height="899" viewBox="0 0 282 899" fill="none" xmlns="http://www.w3.org/2000/svg">
<path d="M109.423 146.4L110.275 136.106M119.516 143.482L113.303 135.23M113.704 130.428L119.034 125.62L112.304 118.977L98.6633 135.039L103.15 139.468L108.113 135.141M95.5935 255.764L94.6949 264.977M101.134 256.305L100.235 265.517M107.127 256.89L106.228 266.102M112.78 257.441L111.882 266.653M90.8778 267.828L115.076 270.189M88.737 271.052L116.44 273.755M169.641 163.601C179.258 172.036 179.93 180.652 176.219 189.573C172.156 199.767 159.364 212.183 138.091 197.657M146.937 202.402L144.672 207.846M132.879 202.938L157.676 213.254M141.704 171.49C142.195 171.162 142.611 171.867 142.725 172.447C142.889 173.757 143.142 175.281 144.289 175.935C145.133 176.464 146.078 176.325 147.023 176.186C151.961 175.402 157.05 174.681 161.432 172.247C162.351 171.743 163.334 171.087 163.925 170.092C164.517 169.096 164.655 167.912 163.999 166.93M143.946 192.111C144.777 191.392 145.104 189.754 144.385 188.923C144.058 188.432 143.604 188.243 143.427 187.815C142.835 186.682 143.615 185.233 144.358 184.3C145.1 183.367 146.12 182.195 147.367 182.182C148.249 182.194 149.03 182.874 149.812 183.554C150.833 184.51 151.702 185.404 152.446 186.601C153.19 187.797 153.72 189.082 153.519 190.417C153.47 191.815 152.753 193.113 151.493 194.009C150.788 194.425 149.932 194.778 149.403 195.622M163.247 195.174C163.473 194.204 163.61 193.019 163.32 192.012C163.181 191.067 162.677 190.148 162.172 189.228C161.05 186.81 160.758 183.674 162.306 181.657C163.175 180.422 164.674 179.804 166.198 179.551C167.722 179.299 169.12 179.348 170.67 179.461M6.32364 106.142L7.60541 108.38C8.35812 109.694 8.58529 111.309 8.00465 112.733L2.17917 132.214C1.47534 135.453 2.96473 140.49 4.56426 143.283L10.3037 153.304M6.32457 106.142L7.60634 108.379C8.35905 109.694 9.63731 110.707 11.1588 110.926L30.9096 115.758C34.0597 116.79 37.6513 120.623 39.2508 123.416L44.9902 133.436M9.84583 152.911C9.84583 152.911 7.31836 148.905 10.5428 143.567C13.2547 138.96 18.3187 138.459 21.1446 140.549C22.6922 141.626 24.7491 144.811 25.2585 146.919C25.7128 150.15 24.6878 151.61 24.6878 151.61L32.3635 152.013M3.31572 128.508L27.1401 114.862M44.7084 132.943C44.7084 132.943 42.5313 128.736 36.296 128.817C30.9497 128.825 27.9555 132.939 28.3287 136.434C28.4749 138.314 30.1815 141.7 31.742 143.206C34.2985 145.232 36.0763 145.087 36.0763 145.087L32.3652 152.012M5.89553 146.011C5.89553 146.011 3.20589 142.533 7.13103 136.795C10.5437 131.786 16.1333 130.984 19.2965 132.445C19.9291 132.737 21.9211 133.778 21.9211 133.778C21.9211 133.778 21.9371 131.368 22.0993 130.839C22.4398 127.372 25.9595 122.956 32.0066 122.547C38.9426 122.065 40.5811 126.144 40.5811 126.144M63.5051 61.7855L62.0969 65.313C61.488 66.8385 62.2326 68.5726 63.7581 69.1816L63.6627 69.1435C65.1882 69.7524 66.9223 69.0078 67.5313 67.4823C68.1402 65.9569 69.8744 65.2123 71.3998 65.8212L71.5904 65.8973C73.116 66.5063 73.8605 68.2404 73.2516 69.7658L71.6299 73.8283M60.2016 80.5833C63.3262 78.2936 73.6605 81.7557 75.0745 86.5204M70.1117 77.355L68.6655 80.9779M8.76358 28.2548C7.31962 14.0374 20.9817 9.59446 20.9817 9.59446L21.426 16.7031M9.20783 28.2554C9.20783 28.2554 18.0937 30.4768 26.091 21.591C28.9789 18.3699 30.3118 8.70645 30.3118 8.70645L5.09812 31.5876M15.6502 21.9237C15.7613 21.8126 23.8696 23.7009 23.8696 23.7009M20.4264 18.0359C20.5375 17.9249 27.313 19.4798 27.313 19.4798M24.9803 13.3705V8.59438L30.3119 8.03901M54.0136 183.55C54.5392 183.55 58.5343 181.132 58.5343 181.132L62.7396 192.696L72.5171 169.883H84.292M81.3481 181.237C81.3481 181.237 79.5608 176.401 74.7247 178.714C72.5169 179.765 70.7296 184.496 71.7809 186.599C72.3066 187.65 73.7785 188.701 75.3555 188.596C76.6171 188.491 77.9838 187.545 78.7197 186.599C80.4019 184.391 82.3994 177.767 82.3994 177.767M80.2969 183.97C80.2969 183.97 79.6661 188.175 80.8226 188.806C81.7687 189.332 84.5022 187.229 84.5022 187.229M98.7713 5.87194C103.011 7.89972 108.91 13.2457 114.441 20.6194C122.367 31.3114 126.239 42.0033 122.92 44.3998C119.602 46.7963 110.569 40.16 102.458 29.4679C96.9279 21.7255 93.241 14.1674 92.8723 9.55881M128.635 30.5101C124.395 33.111 116.837 34.7661 108.357 34.7661C94.9001 34.7661 84.2082 30.5101 84.2082 25.3085C84.2082 20.1067 95.0844 15.8508 108.357 15.8508C117.759 15.8508 125.87 17.9787 129.925 21.0526M170.91 86.7032C170.738 84.6343 168.118 83.1852 165.044 83.4401C161.97 83.6951 159.625 85.5561 159.796 87.625L160.783 99.5209C160.783 99.5209 164.509 94.2124 171.853 98.0819M170.91 86.7032L171.853 98.0819M170.91 86.7032C170.738 84.6343 173.084 82.7733 176.158 82.5183C179.231 82.2634 181.852 83.7125 182.023 85.7814L183.01 97.6773C183.01 97.6773 178.46 93.0553 171.853 98.0819M159.375 88.2851L155.828 88.5793L156.961 102.234L169.374 101.204M182.666 86.3532L186.212 86.0591L187.345 99.7134L174.931 100.743C175.008 101.674 173.886 102.495 172.349 102.623C170.812 102.75 169.57 102.124 169.493 101.193M194.541 256.803C194.205 258.387 193.64 259.751 193.365 260.317C190.941 263.495 188.327 261.006 187.887 259.611C187.447 258.216 187.052 254.791 188.992 252.248C190.931 249.705 194.036 250.454 195.347 251.147L194.541 256.803ZM194.541 256.803C195.066 254.337 195.361 251.281 195.646 249.44L194.541 256.803ZM194.541 256.803C195.324 262.405 198.244 260.758 199.72 259.215M179.412 23.2773L176.769 30.1707C175.488 33.5108 177.343 35.451 180.194 36.5441L183.63 37.8613C186.481 38.9544 189.158 38.7518 190.438 35.4117L193.081 28.5183M186.57 22.2842L174.409 17.6215L171.795 24.4391M171.795 24.4391L167.683 27.7233L172.474 29.5601L171.795 24.4391ZM36.9172 262.589L33.2951 244.28M36.9172 262.589L15.1116 271.432L51.3059 216.256L29.5004 225.099M36.9172 262.589L29.5004 225.099M36.9172 262.589L43.7383 251.274L21.8074 236.587M36.9172 262.589L21.8074 236.587M33.2951 244.28L29.5004 225.099M33.2951 244.28L40.3187 233.005L52.4756 240.485M33.2951 244.28L52.4756 240.485M29.5004 225.099L21.8074 236.587M21.8074 236.587L60.4475 262.463L52.4756 240.485M21.8074 236.587L52.4756 240.485M21.8074 236.587L5.09812 225.397L14.1144 248.075M21.8074 236.587L14.1144 248.075M52.4756 240.485L14.1144 248.075M14.1144 248.075L25.4295 254.896M109.423 458.023L110.275 447.728M119.516 455.105L113.303 446.853M113.704 442.051L119.034 437.243L112.304 430.6L98.6633 446.662L103.15 451.09L108.113 446.763M95.5935 567.387L94.6949 576.599M101.134 567.928L100.235 577.14M107.127 568.512L106.228 577.724M112.78 569.064L111.882 578.276M90.8778 579.451L115.076 581.811M88.737 582.675L116.44 585.377M169.641 475.224C179.258 483.658 179.93 492.275 176.219 501.196C172.156 511.39 159.364 523.805 138.091 509.28M146.937 514.025L144.672 519.468M132.879 514.561L157.676 524.876M141.704 483.113C142.195 482.785 142.611 483.49 142.725 484.069C142.889 485.379 143.142 486.904 144.289 487.558C145.133 488.087 146.078 487.947 147.023 487.808C151.961 487.025 157.05 486.304 161.432 483.87C162.351 483.365 163.334 482.71 163.925 481.714C164.517 480.719 164.655 479.534 163.999 478.552M143.946 503.733C144.777 503.015 145.104 501.377 144.385 500.546C144.058 500.055 143.604 499.866 143.427 499.438C142.835 498.304 143.615 496.855 144.358 495.923C145.1 494.99 146.12 493.818 147.367 493.804C148.249 493.817 149.03 494.496 149.812 495.176C150.833 496.133 151.702 497.027 152.446 498.223C153.19 499.42 153.72 500.704 153.519 502.04C153.47 503.438 152.753 504.736 151.493 505.631C150.788 506.047 149.932 506.4 149.403 507.245M163.247 506.796C163.473 505.826 163.61 504.642 163.32 503.634C163.181 502.69 162.677 501.771 162.172 500.851C161.05 498.433 160.758 495.296 162.306 493.28C163.175 492.045 164.674 491.427 166.198 491.174C167.722 490.921 169.12 490.971 170.67 491.083M6.32364 417.765L7.60541 420.003C8.35812 421.317 8.58529 422.932 8.00465 424.355L2.17917 443.836C1.47534 447.075 2.96473 452.113 4.56426 454.906L10.3037 464.926M6.32457 417.764L7.60634 420.002C8.35905 421.316 9.63731 422.329 11.1588 422.549L30.9096 427.38C34.0597 428.412 37.6513 432.246 39.2508 435.038L44.9902 445.059M9.84583 464.534C9.84583 464.534 7.31836 460.527 10.5428 455.19C13.2547 450.582 18.3187 450.081 21.1446 452.172C22.6922 453.249 24.7491 456.434 25.2585 458.542C25.7128 461.772 24.6878 463.232 24.6878 463.232L32.3635 463.635M3.31572 440.13L27.1401 426.485M44.7084 444.566C44.7084 444.566 42.5313 440.359 36.296 440.439C30.9497 440.447 27.9555 444.562 28.3287 448.057C28.4749 449.937 30.1815 453.323 31.742 454.829C34.2985 456.855 36.0763 456.709 36.0763 456.709L32.3652 463.634M5.89553 457.633C5.89553 457.633 3.20589 454.156 7.13103 448.417C10.5437 443.408 16.1333 442.607 19.2965 444.067C19.9291 444.359 21.9211 445.4 21.9211 445.4C21.9211 445.4 21.9371 442.991 22.0993 442.462C22.4398 438.994 25.9595 434.579 32.0066 434.169C38.9426 433.687 40.5811 437.767 40.5811 437.767M63.5051 373.408L62.0969 376.936C61.488 378.461 62.2326 380.195 63.7581 380.804L63.6627 380.766C65.1882 381.375 66.9223 380.63 67.5313 379.105C68.1402 377.58 69.8744 376.835 71.3998 377.444L71.5904 377.52C73.116 378.129 73.8605 379.863 73.2516 381.388L71.6299 385.451M60.2016 392.206C63.3262 389.916 73.6605 393.378 75.0745 398.143M70.1117 388.978L68.6655 392.6M8.76358 339.877C7.31962 325.66 20.9817 321.217 20.9817 321.217L21.426 328.326M9.20783 339.878C9.20783 339.878 18.0937 342.099 26.091 333.214C28.9789 329.992 30.3118 320.329 30.3118 320.329L5.09812 343.21M15.6502 333.546C15.7613 333.435 23.8696 335.324 23.8696 335.324M20.4264 329.659C20.5375 329.547 27.313 331.102 27.313 331.102M24.9803 324.993V320.217L30.3119 319.662M54.0136 495.172C54.5392 495.172 58.5343 492.754 58.5343 492.754L62.7396 504.319L72.5171 481.505H84.292M81.3481 492.859C81.3481 492.859 79.5608 488.023 74.7247 490.336C72.5169 491.388 70.7296 496.118 71.7809 498.221C72.3066 499.273 73.7785 500.324 75.3555 500.219C76.6171 500.114 77.9838 499.167 78.7197 498.221C80.4019 496.013 82.3994 489.39 82.3994 489.39M80.2969 495.593C80.2969 495.593 79.6661 499.798 80.8226 500.429C81.7687 500.954 84.5022 498.852 84.5022 498.852M98.7713 317.495C103.011 319.522 108.91 324.868 114.441 332.242C122.367 342.934 126.239 353.626 122.92 356.022C119.602 358.419 110.569 351.783 102.458 341.091C96.9279 333.348 93.241 325.79 92.8723 321.181M128.635 342.133C124.395 344.734 116.837 346.389 108.357 346.389C94.9001 346.389 84.2082 342.133 84.2082 336.931C84.2082 331.729 95.0844 327.473 108.357 327.473C117.759 327.473 125.87 329.601 129.925 332.675M170.91 398.326C170.738 396.257 168.118 394.808 165.044 395.063C161.97 395.318 159.625 397.179 159.796 399.248L160.783 411.143C160.783 411.143 164.509 405.835 171.853 409.705M170.91 398.326L171.853 409.705M170.91 398.326C170.738 396.257 173.084 394.396 176.158 394.141C179.231 393.886 181.852 395.335 182.023 397.404L183.01 409.3C183.01 409.3 178.46 404.678 171.853 409.705M159.375 399.908L155.828 400.202L156.961 413.856L169.374 412.827M182.666 397.976L186.212 397.682L187.345 411.336L174.931 412.366C175.008 413.297 173.886 414.118 172.349 414.245C170.812 414.373 169.57 413.747 169.493 412.816M194.541 568.425C194.205 570.01 193.64 571.374 193.365 571.939C190.941 575.118 188.327 572.628 187.887 571.233C187.447 569.839 187.052 566.413 188.992 563.87C190.931 561.328 194.036 562.077 195.347 562.769L194.541 568.425ZM194.541 568.425C195.066 565.959 195.361 562.903 195.646 561.062L194.541 568.425ZM194.541 568.425C195.324 574.027 198.244 572.381 199.72 570.838M179.412 334.9L176.769 341.793C175.488 345.133 177.343 347.074 180.194 348.167L183.63 349.484C186.481 350.577 189.158 350.374 190.438 347.034L193.081 340.141M186.57 333.907L174.409 329.244L171.795 336.062M171.795 336.062L167.683 339.346L172.474 341.183L171.795 336.062ZM36.9172 574.211L33.2951 555.903M36.9172 574.211L15.1116 583.055L51.3059 527.878L29.5004 536.722M36.9172 574.211L29.5004 536.722M36.9172 574.211L43.7383 562.896L21.8074 548.21M36.9172 574.211L21.8074 548.21M33.2951 555.903L29.5004 536.722M33.2951 555.903L40.3187 544.628L52.4756 552.108M33.2951 555.903L52.4756 552.108M29.5004 536.722L21.8074 548.21M21.8074 548.21L60.4475 574.086L52.4756 552.108M21.8074 548.21L52.4756 552.108M21.8074 548.21L5.09812 537.02L14.1144 559.697M21.8074 548.21L14.1144 559.697M52.4756 552.108L14.1144 559.697M14.1144 559.697L25.4295 566.518M109.423 769.645L110.275 759.351M119.516 766.727L113.303 758.475M113.704 753.673L119.034 748.866L112.304 742.223L98.6633 758.284L103.15 762.713L108.113 758.386M95.5935 879.01L94.6949 888.222M101.134 879.55L100.235 888.762M107.127 880.135L106.228 889.347M112.78 880.686L111.882 889.898M90.8778 891.074L115.076 893.434M88.737 894.297L116.44 897M169.641 786.846C179.258 795.281 179.93 803.897 176.219 812.818C172.156 823.012 159.364 835.428 138.091 820.903M146.937 825.648L144.672 831.091M132.879 826.183L157.676 836.499M141.704 794.735C142.195 794.407 142.611 795.113 142.725 795.692C142.889 797.002 143.142 798.526 144.289 799.181C145.133 799.709 146.078 799.57 147.023 799.431C151.961 798.647 157.05 797.926 161.432 795.492C162.351 794.988 163.334 794.332 163.925 793.337C164.517 792.341 164.655 791.157 163.999 790.175M143.946 815.356C144.777 814.637 145.104 812.999 144.385 812.168C144.058 811.677 143.604 811.489 143.427 811.06C142.835 809.927 143.615 808.478 144.358 807.545C145.1 806.613 146.12 805.44 147.367 805.427C148.249 805.439 149.03 806.119 149.812 806.799C150.833 807.756 151.702 808.649 152.446 809.846C153.19 811.042 153.72 812.327 153.519 813.662C153.47 815.061 152.753 816.359 151.493 817.254C150.788 817.67 149.932 818.023 149.403 818.867M163.247 818.419C163.473 817.449 163.61 816.265 163.32 815.257C163.181 814.312 162.677 813.393 162.172 812.474C161.05 810.056 160.758 806.919 162.306 804.902C163.175 803.668 164.674 803.049 166.198 802.796C167.722 802.544 169.12 802.593 170.67 802.706M10.3037 776.549L4.56426 766.528C2.96473 763.736 1.47534 758.698 2.17917 755.459L8.00465 735.978C8.58529 734.555 8.35812 732.939 7.60541 731.625L6.32364 729.387L7.60634 731.625C8.35905 732.939 9.63731 733.952 11.1588 734.171L30.9096 739.003C34.0597 740.035 37.6513 743.868 39.2508 746.661L44.9902 756.682M9.84583 776.156C9.84583 776.156 7.31836 772.15 10.5428 766.812C13.2547 762.205 18.3187 761.704 21.1446 763.794C22.6922 764.871 24.7491 768.057 25.2585 770.165C25.7128 773.395 24.6878 774.855 24.6878 774.855L32.3635 775.258M3.31572 751.753L27.1401 738.107M44.7084 756.188C44.7084 756.188 42.5313 751.981 36.296 752.062C30.9497 752.07 27.9555 756.184 28.3287 759.679C28.4749 761.559 30.1815 764.945 31.742 766.451C34.2985 768.478 36.0763 768.332 36.0763 768.332L32.3652 775.257M5.89553 769.256C5.89553 769.256 3.20589 765.779 7.13103 760.04C10.5437 755.031 16.1333 754.229 19.2965 755.69C19.9291 755.982 21.9211 757.023 21.9211 757.023C21.9211 757.023 21.9371 754.614 22.0993 754.084C22.4398 750.617 25.9595 746.201 32.0066 745.792C38.9426 745.31 40.5811 749.389 40.5811 749.389M63.5051 685.031L62.0969 688.558C61.488 690.084 62.2326 691.818 63.7581 692.427L63.6627 692.389C65.1882 692.998 66.9223 692.253 67.5313 690.728C68.1402 689.202 69.8744 688.457 71.3998 689.066L71.5904 689.142C73.116 689.751 73.8605 691.486 73.2516 693.011L71.6299 697.073M60.2016 703.829C63.3262 701.539 73.6605 705.001 75.0745 709.766M70.1117 700.6L68.6655 704.223M8.76358 651.5C7.31962 637.283 20.9817 632.84 20.9817 632.84L21.426 639.948M9.20783 651.501C9.20783 651.501 18.0937 653.722 26.091 644.836C28.9789 641.615 30.3118 631.952 30.3118 631.952L5.09812 654.833M15.6502 645.169C15.7613 645.058 23.8696 646.946 23.8696 646.946M20.4264 641.281C20.5375 641.17 27.313 642.725 27.313 642.725M24.9803 636.616V631.84L30.3119 631.284M54.0136 806.795C54.5392 806.795 58.5343 804.377 58.5343 804.377L62.7396 815.942L72.5171 793.128H84.292M81.3481 804.482C81.3481 804.482 79.5608 799.646 74.7247 801.959C72.5169 803.01 70.7296 807.741 71.7809 809.844C72.3066 810.895 73.7785 811.946 75.3555 811.841C76.6171 811.736 77.9838 810.79 78.7197 809.844C80.4019 807.636 82.3994 801.013 82.3994 801.013M80.2969 807.215C80.2969 807.215 79.6661 811.421 80.8226 812.051C81.7687 812.577 84.5022 810.474 84.5022 810.474M98.7713 629.117C103.011 631.145 108.91 636.491 114.441 643.865C122.367 654.557 126.239 665.248 122.92 667.645C119.602 670.041 110.569 663.405 102.458 652.713C96.9279 644.971 93.241 637.413 92.8723 632.804M128.635 653.755C124.395 656.356 116.837 658.011 108.357 658.011C94.9001 658.011 84.2082 653.755 84.2082 648.554C84.2082 643.352 95.0844 639.096 108.357 639.096C117.759 639.096 125.87 641.224 129.925 644.298M170.91 709.948C170.738 707.88 168.118 706.43 165.044 706.685C161.97 706.94 159.625 708.801 159.796 710.87L160.783 722.766C160.783 722.766 164.509 717.458 171.853 721.327M170.91 709.948L171.853 721.327M170.91 709.948C170.738 707.88 173.084 706.019 176.158 705.764C179.231 705.509 181.852 706.958 182.023 709.027L183.01 720.922C183.01 720.922 178.46 716.3 171.853 721.327M159.375 711.53L155.828 711.824L156.961 725.479L169.374 724.449M182.666 709.598L186.212 709.304L187.345 722.959L174.931 723.988C175.008 724.919 173.886 725.74 172.349 725.868C170.812 725.995 169.57 725.369 169.493 724.438M194.541 880.048C194.205 881.632 193.64 882.996 193.365 883.562C190.941 886.74 188.327 884.251 187.887 882.856C187.447 881.461 187.052 878.036 188.992 875.493C190.931 872.95 194.036 873.699 195.347 874.392L194.541 880.048ZM194.541 880.048C195.066 877.582 195.361 874.526 195.646 872.685L194.541 880.048ZM194.541 880.048C195.324 885.65 198.244 884.004 199.72 882.461M179.412 646.523L176.769 653.416C175.488 656.756 177.343 658.696 180.194 659.789L183.63 661.107C186.481 662.2 189.158 661.997 190.438 658.657L193.081 651.763M186.57 645.529L174.409 640.867L171.795 647.684M171.795 647.684L167.683 650.969L172.474 652.805L171.795 647.684ZM36.9172 885.834L33.2951 867.525M36.9172 885.834L15.1116 894.678L51.3059 839.501L29.5004 848.344M36.9172 885.834L29.5004 848.344M36.9172 885.834L43.7383 874.519L21.8074 859.832M36.9172 885.834L21.8074 859.832M33.2951 867.525L29.5004 848.344M33.2951 867.525L40.3187 856.25L52.4756 863.731M33.2951 867.525L52.4756 863.731M29.5004 848.344L21.8074 859.832M21.8074 859.832L60.4475 885.708L52.4756 863.731M21.8074 859.832L52.4756 863.731M21.8074 859.832L5.09812 848.642L14.1144 871.32M21.8074 859.832L14.1144 871.32M52.4756 863.731L14.1144 871.32M14.1144 871.32L25.4295 878.141M239.377 28.2549C237.933 14.0374 251.595 9.59451 251.595 9.59451L252.04 16.7032M239.821 28.2555C239.821 28.2555 248.707 30.4769 256.705 21.591C259.592 18.3699 260.925 8.70651 260.925 8.70651L235.712 31.5876M246.264 21.9238C246.375 21.8127 254.483 23.701 254.483 23.701M251.04 18.036C251.151 17.9249 257.927 19.4799 257.927 19.4799M255.594 13.3706V8.59444L260.925 8.03907M225.956 106.142L227.237 108.38M227.237 108.38C227.99 109.694 228.217 111.309 227.637 112.733L221.811 132.214C221.107 135.453 222.597 140.49 224.196 143.283L229.936 153.304M227.237 108.38L225.956 106.142M227.237 108.38C227.99 109.694 229.269 110.707 230.791 110.926L250.541 115.758C253.692 116.79 257.283 120.623 258.883 123.416L264.622 133.436M229.478 152.911C229.478 152.911 226.95 148.905 230.175 143.567C232.887 138.96 237.951 138.459 240.776 140.549C242.324 141.626 244.381 144.811 244.89 146.919C245.345 150.15 244.32 151.61 244.32 151.61L251.995 152.013M222.948 128.508L246.772 114.862M264.34 132.943C264.34 132.943 262.163 128.736 255.928 128.817C250.582 128.825 247.587 132.939 247.961 136.434C248.107 138.314 249.813 141.7 251.374 143.206C253.93 145.232 255.708 145.087 255.708 145.087L251.997 152.012M225.527 146.011C225.527 146.011 222.838 142.533 226.763 136.795C230.176 131.786 235.765 130.984 238.928 132.445C239.561 132.737 241.553 133.778 241.553 133.778C241.553 133.778 241.569 131.368 241.731 130.839C242.072 127.372 245.591 122.956 251.639 122.547C258.574 122.065 260.213 126.144 260.213 126.144M256.549 262.589L252.927 244.28M256.549 262.589L234.744 271.432L270.938 216.256L249.132 225.099M256.549 262.589L249.132 225.099M256.549 262.589L263.37 251.274L241.439 236.587M256.549 262.589L241.439 236.587M252.927 244.28L249.132 225.099M252.927 244.28L259.951 233.005L272.108 240.485M252.927 244.28L272.108 240.485M249.132 225.099L241.439 236.587M241.439 236.587L280.079 262.463L272.108 240.485M241.439 236.587L272.108 240.485M241.439 236.587L224.73 225.397L233.746 248.075M241.439 236.587L233.746 248.075M272.108 240.485L233.746 248.075M233.746 248.075L245.062 254.896M239.377 336.838C237.933 322.62 251.595 318.177 251.595 318.177L252.04 325.286M239.821 336.838C239.821 336.838 248.707 339.06 256.705 330.174C259.592 326.953 260.925 317.289 260.925 317.289L235.712 340.17M246.264 330.507C246.375 330.396 254.483 332.284 254.483 332.284M251.04 326.619C251.151 326.508 257.927 328.063 257.927 328.063M255.594 321.953V317.177L260.925 316.622M225.956 414.725L227.237 416.963M227.237 416.963C227.99 418.277 228.217 419.892 227.637 421.316L221.811 440.796C221.107 444.036 222.597 449.073 224.196 451.866L229.936 461.886M227.237 416.963L225.956 414.724M227.237 416.963C227.99 418.277 229.269 419.29 230.791 419.509L250.542 424.341C253.692 425.373 257.283 429.206 258.883 431.999L264.622 442.019M229.478 461.494C229.478 461.494 226.95 457.487 230.175 452.15C232.887 447.542 237.951 447.042 240.776 449.132C242.324 450.209 244.381 453.394 244.89 455.502C245.345 458.733 244.32 460.192 244.32 460.192L251.995 460.596M222.948 437.091L246.772 423.445M264.34 441.526C264.34 441.526 262.163 437.319 255.928 437.399C250.582 437.407 247.587 441.522 247.961 445.017C248.107 446.897 249.813 450.283 251.374 451.789C253.93 453.815 255.708 453.67 255.708 453.67L251.997 460.595M225.527 454.594C225.527 454.594 222.838 451.116 226.763 445.377C230.176 440.368 235.765 439.567 238.928 441.027C239.561 441.32 241.553 442.36 241.553 442.36C241.553 442.36 241.569 439.951 241.731 439.422C242.072 435.955 245.591 431.539 251.639 431.13C258.574 430.648 260.213 434.727 260.213 434.727M256.549 571.172L252.927 552.863M256.549 571.172L234.744 580.015L270.938 524.838L249.132 533.682M256.549 571.172L249.132 533.682M256.549 571.172L263.37 559.856L241.439 545.17M256.549 571.172L241.439 545.17M252.927 552.863L249.132 533.682M252.927 552.863L259.951 541.588L272.108 549.068M252.927 552.863L272.108 549.068M249.132 533.682L241.439 545.17M241.439 545.17L280.079 571.046L272.108 549.068M241.439 545.17L272.108 549.068M241.439 545.17L224.73 533.98L233.746 556.658M241.439 545.17L233.746 556.658M272.108 549.068L233.746 556.658M233.746 556.658L245.062 563.479M239.377 652.01C237.933 637.792 251.595 633.349 251.595 633.349L252.04 640.458M239.821 652.01C239.821 652.01 248.707 654.231 256.705 645.346C259.592 642.125 260.925 632.461 260.925 632.461L235.712 655.342M246.264 645.678C246.375 645.567 254.483 647.456 254.483 647.456M251.04 641.791C251.151 641.68 257.927 643.234 257.927 643.234M255.594 637.125V632.349L260.925 631.794M225.956 729.897L227.237 732.135M227.237 732.135C227.99 733.449 228.217 735.064 227.637 736.487L221.811 755.968C221.107 759.207 222.597 764.245 224.196 767.038L229.936 777.058M227.237 732.135L225.956 729.896M227.237 732.135C227.99 733.449 229.269 734.461 230.791 734.681L250.542 739.512C253.692 740.544 257.283 744.378 258.883 747.17L264.622 757.191M229.478 776.666C229.478 776.666 226.95 772.659 230.175 767.322C232.887 762.714 237.951 762.213 240.776 764.304C242.324 765.381 244.381 768.566 244.89 770.674C245.345 773.904 244.32 775.364 244.32 775.364L251.995 775.767M222.948 752.262L246.772 738.617M264.34 756.698C264.34 756.698 262.163 752.491 255.928 752.571C250.582 752.579 247.587 756.694 247.961 760.189C248.107 762.069 249.813 765.455 251.374 766.96C253.93 768.987 255.708 768.841 255.708 768.841L251.997 775.766M225.527 769.765C225.527 769.765 222.838 766.288 226.763 760.549C230.176 755.54 235.765 754.739 238.928 756.199C239.561 756.491 241.553 757.532 241.553 757.532C241.553 757.532 241.569 755.123 241.731 754.594C242.072 751.126 245.591 746.711 251.639 746.301C258.574 745.819 260.213 749.899 260.213 749.899M256.549 886.343L252.927 868.035M256.549 886.343L234.744 895.187L270.938 840.01L249.132 848.854M256.549 886.343L249.132 848.854M256.549 886.343L263.37 875.028L241.439 860.342M256.549 886.343L241.439 860.342M252.927 868.035L249.132 848.854M252.927 868.035L259.951 856.76L272.108 864.24M252.927 868.035L272.108 864.24M249.132 848.854L241.439 860.342M241.439 860.342L280.079 886.218L272.108 864.24M241.439 860.342L272.108 864.24M241.439 860.342L224.73 849.152L233.746 871.829M241.439 860.342L233.746 871.829M272.108 864.24L233.746 871.829M233.746 871.829L245.062 878.65M114.499 113.762L124.22 123.358L120.529 127.096L110.808 117.501L114.499 113.762ZM99.4111 135.777L102.402 138.73L100.188 140.973L97.1968 138.021L99.4111 135.777ZM113.85 131.449C114.334 133.122 113.37 134.869 111.698 135.353C110.025 135.836 108.278 134.872 107.794 133.2C107.311 131.528 108.274 129.78 109.947 129.297C111.619 128.813 113.367 129.777 113.85 131.449ZM89.7558 251.241L119.381 254.131L105.259 245.607L89.7558 251.241ZM148.635 196.19C157.152 199.733 166.93 195.7 170.473 187.182C174.017 178.665 169.984 168.887 161.466 165.344C152.948 161.8 143.171 165.833 139.627 174.351C136.084 182.869 140.117 192.646 148.635 196.19ZM63.2613 94.5158C59.1617 92.8793 57.1569 88.2104 58.7934 84.1108L61.6477 76.9603C62.9037 73.8141 66.5054 72.2675 69.6516 73.5234L73.0839 74.8935C76.2301 76.1495 77.7766 79.7512 76.5207 82.8974L73.6663 90.0479C72.0299 94.1474 67.361 96.1524 63.2613 94.5158ZM34.4943 33.5867H24.3867V31.0319L28.6075 29.0327V27.5887H26.2749V25.2562H32.3839V27.6998H29.9403V29.0327L34.4943 31.0319V33.5867ZM114.542 29.2426C122.239 18.3501 125.783 7.61481 122.457 5.26464C119.131 2.91444 110.195 9.8393 102.498 20.7318C94.8012 31.6242 91.2578 42.3594 94.5837 44.7096C97.9097 47.0599 106.845 40.135 114.542 29.2426ZM94.7154 10.1111C96.9552 10.1111 98.7709 8.2954 98.7709 6.05557C98.7709 3.81575 96.9552 2 94.7154 2C92.4755 2 90.6598 3.81575 90.6598 6.05557C90.6598 8.2954 92.4755 10.1111 94.7154 10.1111ZM136.746 26.1493C136.746 28.3614 134.903 30.2049 132.691 30.2049C131.401 30.2049 130.294 29.6517 129.557 28.7301C129.004 27.9927 128.635 27.071 128.635 26.1493C128.635 24.4903 129.557 23.0155 131.032 22.4625C131.585 22.278 131.954 22.0938 132.506 22.0938C134.903 22.0938 136.746 23.9371 136.746 26.1493ZM108.173 26.8859C109.293 26.8859 110.201 25.978 110.201 24.8581C110.201 23.7382 109.293 22.8304 108.173 22.8304C107.053 22.8304 106.145 23.7382 106.145 24.8581C106.145 25.978 107.053 26.8859 108.173 26.8859ZM169.401 262.814C169.971 263.819 171.635 265.406 173.723 263.72C175.828 259.384 180.461 247.658 182.514 242.337L182.574 263.29C179.975 258.591 173.654 250.272 169.164 254.58C168.38 256.923 169.329 258.965 184.834 255.727L169.401 262.814ZM174.374 17.7141L185.062 29.5261L200.354 27.6753L190.013 15.785L174.374 17.7141ZM114.499 425.385L124.22 434.98L120.529 438.719L110.808 429.123L114.499 425.385ZM99.4111 447.4L102.402 450.353L100.188 452.596L97.1968 449.643L99.4111 447.4ZM113.85 443.072C114.334 444.744 113.37 446.492 111.698 446.975C110.025 447.459 108.278 446.495 107.794 444.823C107.311 443.15 108.274 441.403 109.947 440.919C111.619 440.436 113.367 441.399 113.85 443.072ZM89.7558 562.864L119.381 565.754L105.259 557.229L89.7558 562.864ZM148.635 507.812C157.152 511.356 166.93 507.323 170.473 498.805C174.017 490.287 169.984 480.51 161.466 476.966C152.948 473.423 143.171 477.456 139.627 485.973C136.084 494.491 140.117 504.269 148.635 507.812ZM63.2613 406.138C59.1617 404.502 57.1569 399.833 58.7934 395.733L61.6477 388.583C62.9037 385.437 66.5054 383.89 69.6516 385.146L73.0839 386.516C76.2301 387.772 77.7766 391.374 76.5207 394.52L73.6663 401.67C72.0299 405.77 67.361 407.775 63.2613 406.138ZM34.4943 345.209H24.3867V342.655L28.6075 340.655V339.211H26.2749V336.879H32.3839V339.322H29.9403V340.655L34.4943 342.655V345.209ZM114.542 340.865C122.239 329.973 125.783 319.237 122.457 316.887C119.131 314.537 110.195 321.462 102.498 332.354C94.8012 343.247 91.2578 353.982 94.5837 356.332C97.9097 358.682 106.845 351.758 114.542 340.865ZM94.7154 321.734C96.9552 321.734 98.7709 319.918 98.7709 317.678C98.7709 315.438 96.9552 313.623 94.7154 313.623C92.4755 313.623 90.6598 315.438 90.6598 317.678C90.6598 319.918 92.4755 321.734 94.7154 321.734ZM136.746 337.772C136.746 339.984 134.903 341.827 132.691 341.827C131.401 341.827 130.294 341.274 129.557 340.353C129.004 339.615 128.635 338.694 128.635 337.772C128.635 336.113 129.557 334.638 131.032 334.085C131.585 333.901 131.954 333.716 132.506 333.716C134.903 333.716 136.746 335.56 136.746 337.772ZM108.173 338.509C109.293 338.509 110.201 337.601 110.201 336.481C110.201 335.361 109.293 334.453 108.173 334.453C107.053 334.453 106.145 335.361 106.145 336.481C106.145 337.601 107.053 338.509 108.173 338.509ZM169.401 574.437C169.971 575.441 171.635 577.029 173.723 575.343C175.828 571.006 180.461 559.28 182.514 553.96L182.574 574.912C179.975 570.214 173.654 561.894 169.164 566.203C168.38 568.545 169.329 570.588 184.834 567.349L169.401 574.437ZM174.374 329.337L185.062 341.149L200.354 339.298L190.013 327.408L174.374 329.337ZM114.499 737.007L124.22 746.603L120.529 750.342L110.808 740.746L114.499 737.007ZM99.4111 759.023L102.402 761.975L100.188 764.218L97.1968 761.266L99.4111 759.023ZM113.85 754.694C114.334 756.367 113.37 758.114 111.698 758.598C110.025 759.081 108.278 758.118 107.794 756.445C107.311 754.773 108.274 753.025 109.947 752.542C111.619 752.058 113.367 753.022 113.85 754.694ZM89.7558 874.486L119.381 877.376L105.259 868.852L89.7558 874.486ZM148.635 819.435C157.152 822.978 166.93 818.945 170.473 810.428C174.017 801.91 169.984 792.132 161.466 788.589C152.948 785.046 143.171 789.078 139.627 797.596C136.084 806.114 140.117 815.891 148.635 819.435ZM63.2613 717.761C59.1617 716.124 57.1569 711.456 58.7934 707.356L61.6477 700.205C62.9037 697.059 66.5054 695.513 69.6516 696.769L73.0839 698.139C76.2301 699.395 77.7766 702.996 76.5207 706.143L73.6663 713.293C72.0299 717.393 67.361 719.398 63.2613 717.761ZM34.4943 656.832H24.3867V654.277L28.6075 652.278V650.834H26.2749V648.501H32.3839V650.945H29.9403V652.278L34.4943 654.277V656.832ZM114.542 652.488C122.239 641.595 125.783 630.86 122.457 628.51C119.131 626.16 110.195 633.085 102.498 643.977C94.8012 654.869 91.2578 665.605 94.5837 667.955C97.9097 670.305 106.845 663.38 114.542 652.488ZM94.7154 633.356C96.9552 633.356 98.7709 631.541 98.7709 629.301C98.7709 627.061 96.9552 625.245 94.7154 625.245C92.4755 625.245 90.6598 627.061 90.6598 629.301C90.6598 631.541 92.4755 633.356 94.7154 633.356ZM136.746 649.395C136.746 651.607 134.903 653.45 132.691 653.45C131.401 653.45 130.294 652.897 129.557 651.975C129.004 651.238 128.635 650.316 128.635 649.395C128.635 647.735 129.557 646.261 131.032 645.708C131.585 645.523 131.954 645.339 132.506 645.339C134.903 645.339 136.746 647.182 136.746 649.395ZM108.173 650.131C109.293 650.131 110.201 649.223 110.201 648.103C110.201 646.983 109.293 646.076 108.173 646.076C107.053 646.076 106.145 646.983 106.145 648.103C106.145 649.223 107.053 650.131 108.173 650.131ZM169.401 886.059C169.971 887.064 171.635 888.651 173.723 886.965C175.828 882.629 180.461 870.903 182.514 865.582L182.574 886.535C179.975 881.837 173.654 873.517 169.164 877.825C168.38 880.168 169.329 882.21 184.834 878.972L169.401 886.059ZM174.374 640.959L185.062 652.771L200.354 650.92L190.013 639.03L174.374 640.959ZM265.108 33.5867H255V31.032L259.221 29.0327V27.5887H256.888V25.2563H262.998V27.6998H260.554V29.0327L265.108 31.032V33.5867ZM265.108 342.17H255V339.615L259.221 337.616V336.172H256.888V333.839H262.998V336.283H260.554V337.616L265.108 339.615V342.17ZM265.108 657.341H255V654.787L259.221 652.787V651.343H256.888V649.011H262.998V651.454H260.554V652.787L265.108 654.787V657.341Z" stroke="url(#paint0_linear_129_4002)" stroke-width="3" stroke-miterlimit="10" stroke-linecap="round" stroke-linejoin="round"/>
<defs>
<linearGradient id="paint0_linear_129_4002" x1="116.707" y1="276.445" x2="104.708" y2="897.068" gradientUnits="userSpaceOnUse">
<stop stop-color="#1062D8" stop-opacity="0.47"/>
<stop offset="1" stop-color="#1062D8" stop-opacity="0.69"/>
</linearGradient>
</defs>
</svg>
