<svg width="36" height="37" viewBox="0 0 36 37" fill="none" xmlns="http://www.w3.org/2000/svg">
<circle cx="18" cy="18.1133" r="18" fill="#F0F4F7"/>
<path d="M23.0667 18.4636L17.9167 23.622C17.2416 24.222 16.3627 24.5414 15.4598 24.5148C14.557 24.4882 13.6984 24.1177 13.0597 23.479C12.421 22.8403 12.0505 21.9817 12.0239 21.0789C11.9973 20.176 12.3167 19.2971 12.9167 18.622L19.5834 11.9553C19.9814 11.5772 20.5094 11.3664 21.0584 11.3664C21.6074 11.3664 22.1354 11.5772 22.5334 11.9553C22.9212 12.3483 23.1386 12.8782 23.1386 13.4303C23.1386 13.9824 22.9212 14.5123 22.5334 14.9053L16.7834 20.647C16.7265 20.7082 16.6581 20.7577 16.582 20.7926C16.506 20.8274 16.4239 20.8469 16.3403 20.85C16.2567 20.8531 16.1734 20.8397 16.095 20.8106C16.0166 20.7815 15.9447 20.7372 15.8834 20.6803C15.8221 20.6234 15.7726 20.555 15.7378 20.4789C15.7029 20.4029 15.6834 20.3208 15.6803 20.2372C15.6772 20.1536 15.6906 20.0703 15.7197 19.9919C15.7489 19.9135 15.7931 19.8416 15.8501 19.7803L20.1251 15.5136C20.282 15.3567 20.3701 15.1439 20.3701 14.922C20.3701 14.7 20.282 14.4872 20.1251 14.3303C19.9681 14.1734 19.7553 14.0852 19.5334 14.0852C19.3115 14.0852 19.0986 14.1734 18.9417 14.3303L14.6667 18.6136C14.4528 18.8259 14.283 19.0784 14.1672 19.3566C14.0513 19.6347 13.9916 19.9331 13.9916 20.2345C13.9916 20.5358 14.0513 20.8342 14.1672 21.1124C14.283 21.3905 14.4528 21.643 14.6667 21.8553C15.1037 22.2715 15.6841 22.5037 16.2876 22.5037C16.891 22.5037 17.4714 22.2715 17.9084 21.8553L23.6501 16.1053C24.3125 15.3944 24.6731 14.4542 24.6559 13.4827C24.6388 12.5112 24.2452 11.5842 23.5582 10.8972C22.8711 10.2101 21.9442 9.81655 20.9727 9.79941C20.0012 9.78227 19.0609 10.1429 18.3501 10.8053L11.6834 17.472C10.7844 18.4676 10.3042 19.7718 10.343 21.1128C10.3818 22.4537 10.9364 23.728 11.8914 24.6701C12.8464 25.6122 14.1281 26.1495 15.4695 26.17C16.8108 26.1906 18.1083 25.6927 19.0917 24.7803L24.2501 19.6303C24.3278 19.5526 24.3894 19.4603 24.4314 19.3588C24.4735 19.2573 24.4951 19.1485 24.4951 19.0386C24.4951 18.9287 24.4735 18.8199 24.4314 18.7184C24.3894 18.6169 24.3278 18.5247 24.2501 18.447C24.1724 18.3693 24.0801 18.3076 23.9786 18.2656C23.8771 18.2235 23.7683 18.2019 23.6584 18.2019C23.5485 18.2019 23.4397 18.2235 23.3382 18.2656C23.2367 18.3076 23.1444 18.3693 23.0667 18.447V18.4636Z" fill="#1061D8"/>
</svg>
