<svg width="57" height="57" viewBox="0 0 57 57" fill="none" xmlns="http://www.w3.org/2000/svg">
<circle cx="28.1523" cy="28.7656" r="28" fill="#F0F4F7"/>
<path fill-rule="evenodd" clip-rule="evenodd" d="M18.105 33.3852C19.3552 32.135 21.0509 31.4326 22.819 31.4326H33.4857C35.2538 31.4326 36.9495 32.135 38.1997 33.3852C39.45 34.6355 40.1523 36.3312 40.1523 38.0993V40.766C40.1523 41.5023 39.5554 42.0993 38.819 42.0993C38.0826 42.0993 37.4857 41.5023 37.4857 40.766V38.0993C37.4857 37.0384 37.0643 36.021 36.3141 35.2709C35.564 34.5207 34.5465 34.0993 33.4857 34.0993H22.819C21.7581 34.0993 20.7407 34.5207 19.9906 35.2709C19.2404 36.021 18.819 37.0384 18.819 38.0993V40.766C18.819 41.5023 18.2221 42.0993 17.4857 42.0993C16.7493 42.0993 16.1523 41.5023 16.1523 40.766V38.0993C16.1523 36.3312 16.8547 34.6355 18.105 33.3852Z" fill="#CFD8E0"/>
<path fill-rule="evenodd" clip-rule="evenodd" d="M28.153 18.0993C25.9439 18.0993 24.153 19.8901 24.153 22.0993C24.153 24.3084 25.9439 26.0993 28.153 26.0993C30.3621 26.0993 32.153 24.3084 32.153 22.0993C32.153 19.8901 30.3621 18.0993 28.153 18.0993ZM21.4863 22.0993C21.4863 18.4174 24.4711 15.4326 28.153 15.4326C31.8349 15.4326 34.8197 18.4174 34.8197 22.0993C34.8197 25.7812 31.8349 28.7659 28.153 28.7659C24.4711 28.7659 21.4863 25.7812 21.4863 22.0993Z" fill="#CFD8E0"/>
</svg>
