<svg width="26" height="26" viewBox="0 0 26 26" fill="none" xmlns="http://www.w3.org/2000/svg">
<path fill-rule="evenodd" clip-rule="evenodd" d="M7.58325 22.7499C7.58325 21.5533 8.5533 20.5833 9.74992 20.5833C10.9465 20.5833 11.9166 21.5533 11.9166 22.7499C11.9166 23.9465 10.9465 24.9166 9.74992 24.9166C8.5533 24.9166 7.58325 23.9465 7.58325 22.7499Z" fill="#05203E"/>
<path fill-rule="evenodd" clip-rule="evenodd" d="M19.5 22.7499C19.5 21.5533 20.47 20.5833 21.6667 20.5833C22.8633 20.5833 23.8333 21.5533 23.8333 22.7499C23.8333 23.9465 22.8633 24.9166 21.6667 24.9166C20.47 24.9166 19.5 23.9465 19.5 22.7499Z" fill="#05203E"/>
<path fill-rule="evenodd" clip-rule="evenodd" d="M0 1.08333C0 0.485025 0.485025 0 1.08333 0H5.41667C5.93301 0 6.37759 0.364417 6.47893 0.870722L7.3888 5.41667H24.9167C25.2395 5.41667 25.5456 5.56067 25.7514 5.80943C25.9572 6.0582 26.0413 6.38579 25.9808 6.70294L24.2459 15.8002C24.0973 16.5484 23.6903 17.2204 23.0961 17.6987C22.5049 18.1746 21.7659 18.4285 21.0073 18.4167H10.496C9.73741 18.4285 8.99839 18.1746 8.40718 17.6987C7.81327 17.2206 7.40635 16.5489 7.25761 15.8011C7.25754 15.8008 7.25767 15.8014 7.25761 15.8011L5.44786 6.75914C5.44051 6.72923 5.43441 6.69883 5.42961 6.668L4.52868 2.16667H1.08333C0.485025 2.16667 0 1.68164 0 1.08333ZM7.82246 7.58333L9.38258 15.3781C9.43211 15.6275 9.56778 15.8515 9.76583 16.0109C9.96388 16.1704 10.2117 16.2551 10.4659 16.2502L10.4867 16.25H21.0167L21.0374 16.2502C21.2916 16.2551 21.5394 16.1704 21.7375 16.0109C21.9346 15.8523 22.07 15.6296 22.1201 15.3816L23.6072 7.58333H7.82246Z" fill="#05203E"/>
</svg>
