<svg width="183" height="21" viewBox="0 0 183 21" fill="none" xmlns="http://www.w3.org/2000/svg">
<g opacity="0.3">
<path d="M1.70752 16.0042V4.90918H3.94237L7.41352 12.01L10.8847 4.90918H13.1037V16.0042H11.5345V6.93798L7.39767 15.2117L3.26082 6.93798V16.0042H1.70752Z" fill="white"/>
<path d="M14.5671 16.0042L19.1477 4.90918H21.1131L25.6462 16.0042H23.8393L22.5555 12.7549H17.5944L16.2947 16.0042H14.5671ZM18.1333 11.376H22.0166L20.0829 6.49418L18.1333 11.376Z" fill="white"/>
<path d="M28.7714 14.5143H31.0538C31.635 14.5143 32.1739 14.4139 32.6705 14.2131C33.1671 14.0018 33.6004 13.7165 33.9702 13.3572C34.3506 12.9874 34.6412 12.5594 34.8419 12.0734C35.0533 11.5767 35.1589 11.0378 35.1589 10.4567C35.1589 9.88608 35.0533 9.35246 34.8419 8.85583C34.6412 8.3592 34.3506 7.93125 33.9702 7.57198C33.6004 7.20215 33.1671 6.91685 32.6705 6.71608C32.1739 6.50475 31.635 6.39908 31.0538 6.39908H28.7714V14.5143ZM27.1071 16.0042V4.90918H31.0221C31.8569 4.90918 32.6282 5.05183 33.3362 5.33713C34.0442 5.61186 34.6623 5.99755 35.1906 6.49418C35.719 6.99081 36.1311 7.57726 36.4269 8.25353C36.7228 8.9298 36.8707 9.66418 36.8707 10.4567C36.8707 11.2597 36.7228 11.9994 36.4269 12.6757C36.1416 13.3414 35.7348 13.9225 35.2065 14.4192C34.6782 14.9158 34.0547 15.3068 33.3362 15.5921C32.6282 15.8668 31.8569 16.0042 31.0221 16.0042H27.1071Z" fill="white"/>
<path d="M38.9402 16.0042V4.90918H47.1188V6.36738H40.6044V9.69588H44.8839V11.1065H40.6044V14.546H47.1822V16.0042H38.9402Z" fill="white"/>
<path d="M52.8392 16.0042V4.90918H57.6418C58.3709 4.90918 59.0049 5.0307 59.5438 5.27373C60.0827 5.51676 60.5001 5.86018 60.7959 6.30398C61.0918 6.73721 61.2397 7.2497 61.2397 7.84143C61.2397 8.38033 61.1024 8.85583 60.8276 9.26793C60.5529 9.68003 60.1672 10.0076 59.6706 10.2506C60.294 10.4725 60.7801 10.8107 61.1288 11.265C61.4881 11.7088 61.6677 12.2319 61.6677 12.8342C61.6677 13.4787 61.5092 14.0388 61.1922 14.5143C60.8752 14.9898 60.4314 15.3596 59.8608 15.6238C59.2902 15.8774 58.6192 16.0042 57.8478 16.0042H52.8392ZM54.5035 9.61663H57.5467C58.1701 9.61663 58.6668 9.4687 59.0366 9.17283C59.4064 8.87696 59.5913 8.47543 59.5913 7.96823C59.5913 7.46103 59.4064 7.0595 59.0366 6.76363C58.6668 6.46776 58.1701 6.31983 57.5467 6.31983H54.5035V9.61663ZM54.5035 14.5935H57.721C58.4184 14.5935 58.9679 14.4297 59.3694 14.1022C59.7815 13.7746 59.9876 13.3308 59.9876 12.7708C59.9876 12.2213 59.7815 11.7828 59.3694 11.4552C58.9679 11.1171 58.4184 10.948 57.721 10.948H54.5035V14.5935Z" fill="white"/>
<path d="M66.4065 16.0042V11.5979L61.9368 4.90918H63.8705L67.2782 10.1238L70.686 4.90918H72.5404L68.0707 11.6296V16.0042H66.4065Z" fill="white"/>
<path d="M128.035 0.251953H124.97V1.42616H128.035V0.251953Z" fill="white"/>
<path d="M161.288 0.175781H158.545V15.8612H161.288V0.175781Z" fill="white"/>
<path fill-rule="evenodd" clip-rule="evenodd" d="M97.6505 2.99852V0.175781H82.8047V15.8634H85.5481V12.6153H97.6505V9.79253H85.5481V2.99852H97.6505Z" fill="white"/>
<path fill-rule="evenodd" clip-rule="evenodd" d="M152.079 0.175781H133.7V2.99852H141.518V15.861H144.261V2.99852H152.079V0.175781Z" fill="white"/>
<path d="M166.007 13.103V13.0943C167.878 12.8936 169.925 12.4509 171.733 11.7752C173.009 11.2979 174.233 10.6801 175.2 9.89636C176.162 9.11599 176.98 8.07855 177.19 6.75968C177.545 4.54035 176.742 2.76957 175.343 1.61034C174.009 0.5049 172.216 0.0136719 170.549 0.0136719C169.019 0.0136719 167.326 0.256513 166.01 1.31421C164.63 2.42375 163.956 4.18176 163.956 6.5412H166.7C166.7 4.69927 167.208 3.88297 167.723 3.46867C168.303 3.00252 169.221 2.77198 170.549 2.77198C171.739 2.77198 172.866 3.13202 173.598 3.739C174.266 4.29245 174.677 5.09597 174.481 6.32271C174.417 6.72664 174.139 7.21305 173.478 7.74937C172.821 8.28208 171.891 8.77331 170.777 9.19002C168.546 10.0239 165.841 10.4604 163.818 10.4604V13.2187C163.818 13.2187 163.817 13.2187 163.818 13.2187V14.5699V15.8613H177.648V13.103H166.007Z" fill="white"/>
<path fill-rule="evenodd" clip-rule="evenodd" d="M102.863 0.175781H100.119V15.8612H114.834V13.0383H102.863V0.175781Z" fill="white"/>
<path d="M124.497 0.175781L116.729 15.8612H121.695L130.746 11.0615L133.123 15.8612H136.202L128.434 0.175781H124.497ZM121.245 12.9605L126.462 2.42622H126.47L129.515 8.57514L121.245 12.9605Z" fill="white"/>
<path d="M180.817 4.25444C182.119 4.25444 182.877 3.3016 182.877 2.13406C182.877 0.966512 182.119 0.0136719 180.817 0.0136719C179.515 0.0136719 178.756 0.966265 178.756 2.13406C178.756 3.3016 179.515 4.25444 180.817 4.25444ZM180.817 3.6814C179.849 3.6814 179.313 2.96498 179.313 2.13406C179.313 1.30313 179.849 0.586709 180.817 0.586709C181.784 0.586709 182.32 1.30313 182.32 2.13406C182.32 2.96498 181.784 3.6814 180.817 3.6814ZM179.918 3.12268H180.448V2.56396H181.255V3.12268H181.784V2.49239C181.784 2.37788 181.722 2.31322 181.61 2.31322H181.193V2.17009C181.485 2.14146 181.784 2.06989 181.784 1.69724C181.784 1.20293 181.179 1.10989 180.782 1.10989H179.918V3.12268ZM180.448 2.0193V1.65406H180.782C181.074 1.65406 181.255 1.65406 181.255 1.83322C181.255 2.01955 181.074 2.01955 180.782 2.01955H180.448V2.0193Z" fill="white"/>
</g>
</svg>
