<svg width="113" height="124" viewBox="0 0 113 124" fill="none" xmlns="http://www.w3.org/2000/svg">
<g clip-path="url(#clip0_927_16923)">
<g opacity="0.45">
<path opacity="0.46" fill-rule="evenodd" clip-rule="evenodd" d="M56.4562 143.679C57.6566 144.877 59.4526 145.409 61.2012 144.915L127.404 126.194C129.978 125.466 131.475 122.789 130.747 120.215L107.839 39.2096L105.781 31.2761L105.271 29.0361C104.647 26.2983 101.834 24.6627 99.1458 25.4756L86.0763 29.4284L87.775 30.0285C89.0796 30.4894 90.1248 31.4862 90.647 32.7674L122.715 111.44C123.725 113.917 122.535 116.744 120.058 117.754L56.4562 143.679Z" fill="url(#paint0_linear_927_16923)"/>
<path d="M13.4661 51.0432C12.4563 48.5659 13.6459 45.739 16.1232 44.7293L67.2817 23.8765C68.3803 23.4287 69.605 23.3996 70.7235 23.7948L87.8219 29.8352C89.1265 30.2961 90.1717 31.2929 90.6939 32.5741L122.762 111.247C123.772 113.724 122.582 116.551 120.105 117.561L56.3953 143.529C53.918 144.539 51.0911 143.349 50.0814 140.872L13.4661 51.0432Z" fill="url(#paint1_linear_927_16923)"/>
</g>
<path d="M89.8745 30.5582L68.4209 23.4111L73.9757 37.0387L89.8745 30.5582Z" fill="url(#paint2_linear_927_16923)" fill-opacity="0.34"/>
<g opacity="0.56" clip-path="url(#clip1_927_16923)">
<path fill-rule="evenodd" clip-rule="evenodd" d="M71.6142 58.4492C70.4137 58.0374 69.1476 58.5741 68.5085 59.0962C68.7486 58.3164 69.6681 57.3821 69.9725 57.1903C70.2605 57.1817 71.2774 57.623 71.6142 58.4492ZM73.1368 54.0971C71.2906 51.2339 64.8896 56.2392 60.7073 56.4081C61.0061 57.3404 62.7885 58.3028 64.1471 58.3737C62.8846 60.8522 62.5177 64.9583 63.8537 69.2473C61.8123 65.2458 58.6794 62.5663 56.044 61.6769C56.9657 60.6764 57.5687 58.7418 57.1294 57.8669C54.021 60.6698 45.9447 61.5659 46.6252 64.9043C46.7702 65.6107 47.4948 66.4813 47.9546 66.6293C47.9311 66.3963 47.9739 65.5855 48.9209 65.0217C53.708 62.1759 61.1551 68.2645 58.601 72.9945C58.5622 73.067 58.6314 73.1419 58.7105 73.1097L70.2338 68.4126C70.312 68.3808 70.309 68.2786 70.2316 68.254C65.0977 66.6578 66.1664 57.0982 71.5791 55.7864C72.6508 55.5273 73.2474 56.0774 73.3937 56.2603C73.619 55.833 73.5286 54.7039 73.1374 54.0978L73.1368 54.0971ZM71.4769 46.4756C71.2657 46.2201 74.2531 44.9937 75.0126 46.857C75.5215 48.1054 73.9737 49.4259 74.5019 50.7218C74.7478 51.3252 75.5804 51.5017 75.7806 51.4201C74.4719 49.528 76.8207 49.84 77.4938 50.0191C75.3312 47.6384 77.6394 46.718 76.8901 45.5277C76.3672 44.6958 74.4771 45.7818 73.5684 45.6231C71.9557 45.3419 69.1592 42.829 69.4346 46.3696C72.0048 47.3338 71.9536 50.3164 69.5834 51.2826C69.5834 51.2826 69.722 51.6602 69.7557 51.6809C72.5267 50.3909 72.669 47.9209 71.4769 46.4756ZM40.5908 65.0612C40.9467 64.4627 42.4079 62.5976 42.796 64.8651C42.9952 64.7839 43.4671 64.0756 43.2212 63.4722C42.693 62.1763 40.663 62.3141 40.1542 61.0657C39.3947 59.2024 42.3879 57.991 42.4158 58.3213C42.5745 60.188 44.403 61.8547 47.2861 60.8398C47.2949 60.8017 47.1301 60.4346 47.1301 60.4346C44.7608 61.4003 42.6392 59.3036 43.8019 56.8175C41.5237 54.0936 41.2807 57.8452 40.3241 59.1736C39.7852 59.9226 37.6745 60.4671 37.8825 61.4277C38.1799 62.8026 40.473 61.8475 40.5911 65.0615L40.5908 65.0612ZM50.7267 66.9631C51.298 65.8292 52.5789 65.3277 53.3997 65.2547C52.6849 64.8642 51.3723 64.8398 51.0213 64.9151C50.8093 65.1103 50.3898 66.137 50.7265 66.9632L50.7267 66.9631ZM55.4604 44.808L53.3994 43.6962L52.7025 45.9321L54.7992 47.1313L55.4606 44.8079L55.4604 44.808ZM65.3953 46.6599L63.9302 45.8701L63.4351 47.4589L64.8886 48.2221L65.3955 46.6598L65.3953 46.6599ZM87.3637 77.799L85.5871 76.9962L84.8776 78.8122L86.5891 79.4543L87.3638 77.7988L87.3637 77.799ZM48.8543 53.4022L47.3891 52.6125L46.8942 54.2012L48.348 54.9642L48.8545 53.4021L48.8543 53.4022ZM48.4218 60.3771L52.0796 58.8861C55.1548 57.6326 55.7725 55.1896 55.5265 53.3898L58.6556 52.1143C59.7381 53.5732 61.8868 54.8884 64.963 53.6345L68.6207 52.1435C68.6207 52.1435 68.9083 51.0187 68.8944 50.5254C68.8445 48.7503 67.8135 48.3329 66.7365 48.7719L65.8561 50.5957L63.9522 49.9072C62.8752 50.3462 62.4296 51.3651 63.6349 52.6694C63.7889 52.8361 64.0834 53.0533 64.3542 53.2395C62.984 53.591 60.9666 53.3819 59.831 51.6352C59.831 51.6352 60.1718 49.728 60.1626 49.0161C60.1276 46.4567 58.6556 46.0049 57.0405 46.6632L55.9499 49.9528L52.8703 48.363C51.2553 49.0213 50.5188 50.3734 52.2839 52.2275C52.7737 52.7436 54.3519 53.8687 54.3519 53.8687C54.7599 55.9118 53.464 57.4715 52.2385 58.1782C52.3027 57.8551 52.3606 57.4944 52.3538 57.2676C52.3029 55.4929 51.274 55.0748 50.1962 55.5142L49.3158 57.3379L47.4115 56.6497C46.3338 57.089 45.8903 58.107 47.0946 59.4117C47.4294 59.7739 48.4225 60.377 48.4225 60.377L48.4218 60.3771ZM90.8376 56.2489C90.2766 56.8924 86.9219 60.512 81.3251 61.9603C81.2774 61.686 81.2207 61.4133 81.155 61.1428C84.5148 59.2829 87.1421 57.5167 88.5586 55.7583C90.1728 53.7531 89.9604 50.6235 88.0718 49.001C88.0234 48.9605 87.944 48.9819 87.9241 49.0408C87.6166 49.9369 85.5908 55.3419 80.3749 58.8917C80.2402 58.6029 80.0934 58.32 79.9348 58.0436C82.0714 55.346 84.0446 52.4368 84.6624 50.2604C85.595 46.9704 84.1183 43.8604 81.6012 42.994C81.5752 42.9853 81.5467 42.9883 81.523 43.0021C81.4993 43.0159 81.4826 43.0391 81.4773 43.066C81.2833 44.2695 79.3916 55.3506 74.9142 61.6271C74.8597 61.7039 74.8042 61.78 74.7477 61.8555C74.6173 62.0306 74.6896 62.2622 74.8908 62.3351C75.8426 62.6789 76.6307 63.3759 77.0259 64.3456C77.7132 66.0316 76.9793 67.9656 75.3777 68.9732C74.5698 69.4998 73.2844 69.9664 71.9052 70.0618C71.8434 70.0666 71.8014 70.1256 71.8236 70.1803L73.9998 75.5192C74.0349 75.6051 74.1748 75.573 74.1722 75.4784C74.1169 73.2276 76.1606 71.9117 77.1283 71.5173C78.3256 73.4585 79.6509 74.9304 80.8375 75.5299C82.7685 76.5027 84.9084 75.6057 85.4146 74.1827C85.4228 74.1591 85.4198 74.1332 85.4065 74.1122C85.3932 74.0911 85.371 74.0773 85.3462 74.0746C84.6712 73.9847 80.759 73.3471 78.8537 70.466C79.0658 70.2826 79.2663 70.086 79.4537 69.8775C81.1436 71.1308 83.2196 72.0143 84.6352 72.0981C87.0125 72.237 88.6458 71.0324 88.8868 69.3121C88.8961 69.2512 88.8354 69.2048 88.7738 69.2236C87.503 69.6275 83.2862 70.0895 80.6076 68.1196C80.725 67.8756 80.8305 67.6261 80.9236 67.3719C83.1269 67.9614 85.9659 68.119 87.7634 67.6547C89.8669 67.1119 91.8675 65.558 90.9816 63.2282C90.9638 63.1817 90.9068 63.1607 90.8587 63.1835C90.1673 63.5152 85.5582 65.6308 81.4362 65.0833C81.4628 64.8161 81.4798 64.5481 81.4874 64.2798C81.4874 64.2798 87.0237 63.4094 89.2569 62.0401C91.4763 60.6798 92.15 58.3468 90.9859 56.2603C90.9559 56.209 90.8786 56.2027 90.838 56.2494L90.8376 56.2489ZM47.7045 78.0492C47.8977 78.2358 48.0977 78.4154 48.3037 78.5878C45.7396 81.8596 40.9675 83.5696 40.2378 83.8165C40.1867 83.8341 40.1611 83.8909 40.1808 83.9357C41.1767 86.2197 43.6926 85.9325 45.5762 84.8501C47.1853 83.9258 49.1063 81.8279 50.2692 79.8665C50.5136 79.9828 50.7635 80.0876 51.0179 80.1803C50.4788 83.4615 47.1412 86.079 45.9504 86.6784C45.8932 86.7085 45.8833 86.7835 45.9316 86.8209C47.3064 87.8825 49.3165 87.6021 50.9202 85.8405C51.8727 84.7915 52.7395 82.7085 53.0713 80.6311C53.3513 80.6487 53.6321 80.6491 53.9122 80.6323C54.5638 84.0244 52.212 87.2148 51.7924 87.7515C51.7767 87.7708 51.7706 87.7962 51.7758 87.8205C51.781 87.8448 51.7969 87.8654 51.8191 87.8766C53.1759 88.54 55.3338 87.6852 56.0346 85.6397C56.4639 84.3816 56.3818 82.4029 55.8807 80.1779C56.8493 79.783 59.2297 79.2956 60.7634 80.9435C60.8288 81.0128 60.9513 80.9379 60.9162 80.8518L58.7401 75.5131C58.7179 75.4587 58.6456 75.4459 58.598 75.4857C57.5456 76.3817 56.2995 76.9463 55.3547 77.1342C53.5045 77.5341 51.6275 76.6642 50.9403 74.9784C50.5453 74.0091 50.6225 72.9582 51.0612 72.0478C51.1558 71.8551 51.0443 71.6394 50.83 71.6048C50.7363 71.5906 50.6428 71.5753 50.5494 71.5589C42.9646 70.2017 33.871 63.6053 32.8833 62.8762C32.8604 62.8602 32.8317 62.8549 32.8045 62.8617C32.7773 62.8684 32.7543 62.8865 32.7415 62.9113C31.5504 65.2904 32.6672 68.5455 35.6341 70.2454C37.5973 71.3698 41.042 72.0705 44.4546 72.5062C44.5347 72.8144 44.6278 73.1191 44.7336 73.4195C38.5275 74.5268 33.306 72.0836 32.4523 71.6554C32.3947 71.6258 32.3213 71.6664 32.3161 71.7291C32.1022 74.2102 34.1374 76.594 36.6913 76.9003C38.9336 77.1674 42.0472 76.5935 45.7496 75.5747C45.8917 75.8141 46.0417 76.0487 46.1992 76.2782C41.1899 79.1521 36.2647 78.9126 35.407 78.8442C35.3433 78.8389 35.2927 78.8982 35.3087 78.9564C35.9356 81.2615 38.0466 82.4574 40.5846 81.8788C43.138 81.2971 47.705 78.0493 47.705 78.0493L47.7045 78.0492ZM87.2767 81.1406L84.8483 80.4493C84.2911 81.1842 84.0331 82.0955 84.1537 82.9914C83.1092 83.5969 79.8188 84.1599 79.9319 83.5976C81.3521 77.6173 77.6976 75.8908 74.7189 77.284L75.9867 80.3944C76.394 81.3936 75.8482 82.5602 74.7692 83L72.6691 83.8561C71.1626 84.4701 70.7963 86.3772 70.7963 86.3772C70.7963 86.3772 69.201 85.2695 67.6945 85.8835L65.5946 86.7395C64.5146 87.1797 63.3107 86.7262 62.9035 85.7272L61.6357 82.6169C58.5318 83.703 57.1236 87.4929 62.3208 90.7759C62.7904 91.0955 59.9735 93.0616 58.4459 93.4775C57.901 93.238 57.2463 93.2139 56.627 93.4663C56.3637 93.5737 56.1216 93.7269 55.9119 93.9187C55.9119 93.9187 47.9959 90.8598 47.8698 90.8498L47.8723 90.7218C47.9512 89.9823 47.1832 89.5246 46.887 89.6997C47.0749 89.1131 46.3118 87.1923 44.0999 87.5775C44.3162 87.9377 44.6663 88.71 44.6663 88.71C44.6663 88.71 42.7546 88.5054 42.264 89.5545C41.9045 90.6516 43.4672 91.7391 43.4672 91.7391C43.4672 91.7391 42.6728 92.0856 42.2637 92.2134C43.643 93.9339 45.5367 93.0004 45.8011 92.4422C45.9005 92.7644 46.7864 92.9209 47.239 92.3215L47.4499 92.0882C47.5213 92.1309 55.2264 95.099 55.2264 95.099C55.1246 95.5812 55.1921 96.0946 55.4777 96.5549C55.9248 97.2738 56.8323 97.6508 57.7262 97.4805C58.3571 97.3594 58.8595 97.0231 59.1949 96.5876L61.2245 97.3487C61.4037 97.414 61.6115 97.4154 61.8038 97.3207C62.1547 97.1496 62.3063 96.7487 62.1429 96.426C62.0697 96.2802 61.9397 96.1824 61.7931 96.1277C61.7592 96.1116 59.724 95.3479 59.724 95.3479C60.5968 93.9999 62.6245 92.4741 64.5102 91.7054C64.8414 91.5704 64.8834 91.2277 64.6579 91.0007C62.9699 89.3039 64.2027 87.0736 66.5945 87.5051C67.6376 87.6931 68.9018 88.3859 70.2406 89.8557C67.4294 91.8777 64.3589 95.5434 64.488 98.1258C64.5386 99.1226 66.0307 99.9014 67.3515 99.642C67.3751 99.6379 67.396 99.6247 67.4097 99.6051C67.4234 99.5855 67.4288 99.5613 67.4245 99.5379C66.6885 95.9041 69.3084 91.9048 71.0306 90.705C71.2293 90.9203 71.1647 90.8507 71.3632 91.065C69.6942 92.8792 68.527 95.7462 68.949 98.4174C69.1414 99.6408 70.8025 100.137 71.9473 99.9919C72.0048 99.9844 72.0412 99.9279 72.0238 99.8769C70.9634 96.7138 71.2636 93.5378 72.0034 91.8473C72.1319 92.0666 72.2526 92.2904 72.365 92.5183C72.365 92.5183 72.5286 96.5089 73.5634 99.0475C74.0449 100.229 76.1444 100.334 76.4517 100.343C76.7303 100.096 78.1563 98.5528 77.6749 97.3717C76.64 94.8328 73.9676 91.8648 73.9676 91.8648C73.8891 91.623 73.8192 91.3785 73.7581 91.1318C75.4683 91.8243 77.9036 93.8837 79.3558 96.8871C79.3681 96.9107 79.3902 96.9277 79.4163 96.9334C79.4423 96.9392 79.4696 96.9332 79.4909 96.917C80.4125 96.2202 81.2519 94.7045 80.5354 93.6946C78.9687 91.4905 76.1309 90.2555 73.6693 90.125C73.6605 89.8334 73.6627 89.9282 73.6546 89.6352C75.7259 89.2887 80.3936 90.3175 82.4078 93.4303C82.4358 93.4711 82.4917 93.4815 82.5328 93.4535C83.6578 92.7161 84.1818 91.1152 83.5194 90.368C81.8084 88.4303 77.0492 87.9561 73.625 88.4757C73.556 86.4885 73.9758 85.1091 74.5903 84.2454C75.9977 82.2654 78.4384 82.9981 78.4177 85.3916C78.4151 85.7116 78.6836 85.9277 79.0159 85.7923C81.1491 84.9228 84.0897 84.6185 85.5489 85.2233C86.6181 85.945 88.1047 86.0795 89.4351 85.3787C90.9469 84.5834 91.7509 82.8828 91.3349 81.3548C90.97 80.0165 89.8406 79.1416 88.5301 78.9481L87.2762 81.1406L87.2767 81.1406ZM69.923 77.38C70.48 76.8705 71.5879 76.6474 71.9371 77.6041C72.0159 77.8214 72.3168 77.6986 72.2497 77.4714C71.8707 75.9801 70.7472 75.9643 69.8119 76.5382C69.4895 76.1038 69.2147 75.7212 68.9274 75.3482C68.6961 75.0457 68.4018 74.4208 68.7973 74.2596C69.0105 74.1727 69.1669 74.8017 69.2512 75.0659C69.3251 75.2976 69.4616 75.4004 69.6473 75.3322C69.7633 75.2904 69.8468 75.0872 69.8927 74.9563C70.2031 74.0764 69.9287 73.0222 69.0599 72.8139C68.3324 72.6382 67.0469 73.5136 66.8949 74.2481C66.7477 74.0547 66.3223 73.8098 66.1247 73.7084C65.9322 73.6088 65.8558 73.5182 65.9814 73.3111C66.0399 73.2115 66.1931 72.8526 66.0861 72.5902C66.0229 72.435 65.785 72.1978 65.401 72.3543C65.0979 72.4779 64.8461 72.824 65.036 73.2898C65.0782 73.3934 65.1488 73.4939 65.2644 73.5859C65.0602 73.6324 64.5452 73.8573 64.3048 74.0319L72.1108 82.6156C72.9563 81.6652 73.3962 80.5267 73.0364 79.644C72.7298 78.8917 71.7183 79.595 71.417 80.4022C70.8543 79.5192 70.3407 78.7014 69.8137 77.8924C69.6689 77.669 69.7571 77.5317 69.9226 77.3792L69.923 77.38ZM61.9064 72.6551L63.5573 74.4849C62.9571 74.9131 62.085 75.8308 62.3453 76.4694C62.6919 77.3197 64.4291 77.2572 65.2757 76.8346C65.3114 77.0462 65.4319 77.1987 65.6323 77.3013C65.3151 77.4306 64.7766 77.8215 64.666 78.1123C64.0275 77.8716 63.2388 78.0106 63.0007 78.4125C62.7619 78.8173 62.9335 79.2678 63.5007 79.6251C63.895 79.8718 64.13 80.1779 64.0118 80.698C65.065 80.2688 64.1215 79.0638 64.5342 78.8956C64.5878 79.182 64.7455 79.4743 65.0037 79.7646C65.1749 79.9578 65.2402 80.118 65.1927 80.3903C65.0734 81.0696 65.051 82.5269 65.5803 83.621C65.2343 83.7598 65.0245 83.7474 64.9547 83.2281C64.9289 83.0351 64.7696 82.9544 64.7138 83.2283C64.6521 83.5305 64.741 83.9676 64.8117 84.141C65.2193 85.141 66.4985 84.8544 66.8689 84.4568C68.7094 85.1914 71.1669 83.7935 71.8619 83.0122L62.2033 72.3923C62.0139 72.1946 61.7247 72.4439 61.9066 72.6554L61.9064 72.6551ZM65.9396 83.0021C65.6356 82.5269 65.9795 81.3156 66.532 80.0567C66.5729 80.7137 67.0995 81.6597 67.6206 81.8472C66.9578 82.1173 66.2212 82.562 65.9394 83.0022L65.9396 83.0021Z" fill="url(#paint3_linear_927_16923)"/>
</g>
<line x1="52.6666" y1="117.27" x2="100.511" y2="97.7681" stroke="white" stroke-opacity="0.04" stroke-width="1.39901"/>
<line x1="55.1642" y1="123.4" x2="88.2874" y2="109.899" stroke="white" stroke-opacity="0.04" stroke-width="1.39901"/>
</g>
<defs>
<linearGradient id="paint0_linear_927_16923" x1="78.3553" y1="29.3294" x2="90.0962" y2="135.336" gradientUnits="userSpaceOnUse">
<stop stop-color="white" stop-opacity="0.37"/>
<stop offset="1" stop-color="white" stop-opacity="0.1"/>
</linearGradient>
<linearGradient id="paint1_linear_927_16923" x1="47.9779" y1="31.7449" x2="88.2499" y2="130.545" gradientUnits="userSpaceOnUse">
<stop stop-color="white" stop-opacity="0.37"/>
<stop offset="1" stop-color="white" stop-opacity="0.13"/>
</linearGradient>
<linearGradient id="paint2_linear_927_16923" x1="72.3555" y1="33.064" x2="87.1187" y2="27.0463" gradientUnits="userSpaceOnUse">
<stop stop-color="white" stop-opacity="0.37"/>
<stop offset="1" stop-color="white" stop-opacity="0.1"/>
</linearGradient>
<linearGradient id="paint3_linear_927_16923" x1="25.6735" y1="64.7884" x2="107.224" y2="94.461" gradientUnits="userSpaceOnUse">
<stop stop-color="white" stop-opacity="0.74"/>
<stop offset="0.874117" stop-color="white" stop-opacity="0"/>
</linearGradient>
<clipPath id="clip0_927_16923">
<rect width="119.482" height="134.013" fill="white" transform="translate(0.582031 45.0996) rotate(-22.1764)"/>
</clipPath>
<clipPath id="clip1_927_16923">
<rect width="61.1582" height="61.1582" fill="white" transform="translate(25.0845 55.2402) rotate(-22.1764)"/>
</clipPath>
</defs>
</svg>
