<svg width="54" height="54" xmlns="http://www.w3.org/2000/svg" xmlns:xlink="http://www.w3.org/1999/xlink" overflow="hidden"><defs><clipPath id="clip0"><path d="M338 385 392 385 392 439 338 439Z" fill-rule="evenodd" clip-rule="evenodd"/></clipPath><clipPath id="clip1"><path d="M347 395 382 395 382 429 347 429Z" fill-rule="evenodd" clip-rule="evenodd"/></clipPath><clipPath id="clip2"><path d="M347 395 382 395 382 429 347 429Z" fill-rule="evenodd" clip-rule="evenodd"/></clipPath><clipPath id="clip3"><path d="M347 395 382 395 382 429 347 429Z" fill-rule="evenodd" clip-rule="evenodd"/></clipPath></defs><g clip-path="url(#clip0)" transform="translate(-338 -385)"><path d="M339 396.86C339 390.862 343.862 386 349.86 386L380.14 386C386.138 386 391 390.862 391 396.86L391 427.14C391 433.138 386.138 438 380.14 438L349.86 438C343.862 438 339 433.138 339 427.14Z" fill="#FFFFFF" fill-rule="evenodd" fill-opacity="0.101961"/><g clip-path="url(#clip1)"><g clip-path="url(#clip2)"><g clip-path="url(#clip3)"><path d="M6.29604 1.44075C3.95987 2.95588 3.50094 7.6919 4.38295 11.5519 5.06985 14.5578 6.53026 18.5901 8.99287 22.3871 11.3095 25.9591 14.5416 29.162 17.006 31.0151 20.1708 33.3946 24.6822 34.907 27.0184 33.3919 28.1997 32.6258 29.9547 30.5326 30.0348 30.157 30.0348 30.157 29.0057 28.5702 28.7798 28.2219L25.3285 22.9005C25.0721 22.505 23.4637 22.8665 22.6467 23.3292 21.5445 23.9537 20.5295 25.6293 20.5295 25.6293 19.7738 26.0659 19.1408 25.6309 17.8183 25.0222 16.1928 24.2743 14.3653 21.9507 12.9108 19.846 11.5824 17.6597 10.206 15.0434 10.1861 13.2543 10.1697 11.7985 10.0306 11.0432 10.7375 10.5312 10.7375 10.5312 12.6813 10.2878 13.701 9.5362 14.4568 8.97892 15.4427 7.65784 15.1862 7.26232L11.735 1.94092C11.5091 1.59269 10.48 0.00584375 10.48 0.00584375 10.1043-0.0741758 7.47734 0.674621 6.29604 1.44075Z" fill="#1BD741" transform="matrix(1.02941 0 -0 1 347 395)"/></g></g></g></g></svg>