<svg width="54" height="54" xmlns="http://www.w3.org/2000/svg" xmlns:xlink="http://www.w3.org/1999/xlink" overflow="hidden"><defs><clipPath id="clip0"><path d="M370 289 424 289 424 343 370 343Z" fill-rule="evenodd" clip-rule="evenodd"/></clipPath><clipPath id="clip1"><path d="M380 299 415 299 415 333 380 333Z" fill-rule="evenodd" clip-rule="evenodd"/></clipPath><clipPath id="clip2"><path d="M380 299 415 299 415 333 380 333Z" fill-rule="evenodd" clip-rule="evenodd"/></clipPath><clipPath id="clip3"><path d="M380 299 415 299 415 333 380 333Z" fill-rule="evenodd" clip-rule="evenodd"/></clipPath></defs><g clip-path="url(#clip0)" transform="translate(-370 -289)"><path d="M371 300.86C371 294.862 375.862 290 381.86 290L412.14 290C418.138 290 423 294.862 423 300.86L423 331.14C423 337.138 418.138 342 412.14 342L381.86 342C375.862 342 371 337.138 371 331.14Z" fill="#FFFFFF" fill-rule="evenodd" fill-opacity="0.101961"/><g clip-path="url(#clip1)"><g clip-path="url(#clip2)"><g clip-path="url(#clip3)"><path d="M25.1582 19.5369C25.092 19.5051 22.6133 18.2845 22.1729 18.126 21.993 18.0614 21.8004 17.9984 21.5955 17.9984 21.2608 17.9984 20.9797 18.1652 20.7606 18.4928 20.513 18.8608 19.7635 19.737 19.5319 19.9987 19.5016 20.0333 19.4604 20.0746 19.4356 20.0746 19.4134 20.0746 19.0298 19.9166 18.9137 19.8662 16.2548 18.7112 14.2365 15.9336 13.9598 15.4653 13.9202 15.3979 13.9186 15.3673 13.9183 15.3673 13.928 15.3317 14.0174 15.242 14.0635 15.1958 14.1985 15.0622 14.3448 14.8861 14.4863 14.7158 14.5533 14.6351 14.6204 14.5543 14.6863 14.4781 14.8917 14.2393 14.9831 14.0538 15.089 13.839L15.1446 13.7274C15.4033 13.2133 15.1823 12.7795 15.1109 12.6394 15.0523 12.5222 14.0057 9.99622 13.8944 9.73084 13.6268 9.09047 13.2732 8.79231 12.7819 8.79231 12.7363 8.79231 12.7819 8.79231 12.5907 8.80037 12.3579 8.81019 11.0901 8.9771 10.5295 9.33046 9.93507 9.70523 8.92942 10.8999 8.92942 13.0008 8.92942 14.8917 10.1294 16.677 10.6445 17.356 10.6573 17.3731 10.6809 17.4079 10.715 17.4578 12.688 20.3392 15.1476 22.4746 17.6409 23.4706 20.0413 24.4294 21.178 24.5403 21.8242 24.5403 21.8244 24.5403 21.8244 24.5403 21.8244 24.5403 22.0959 24.5403 22.3133 24.519 22.505 24.5001L22.6267 24.4885C23.4559 24.415 25.2782 23.4707 25.6927 22.3188 26.0193 21.4115 26.1054 20.4202 25.8881 20.0604 25.7393 19.8158 25.4829 19.6927 25.1582 19.5369Z" fill="#1BD741" transform="matrix(1.02941 0 -0 1 380 299)"/><path d="M17.3018 0C8.09355 0 0.602065 7.43518 0.602065 16.5742 0.602065 19.5301 1.39312 22.4236 2.89166 24.9559L0.0234026 33.4167C-0.030026 33.5744 0.00971429 33.7489 0.126396 33.8676 0.210623 33.9536 0.324877 34 0.441558 34 0.486266 34 0.531305 33.9933 0.57524 33.9792L9.39758 31.1758C11.8118 32.4657 14.5404 33.1466 17.3019 33.1466 26.5093 33.1467 34 25.7123 34 16.5742 34 7.43518 26.5093 0 17.3018 0ZM17.3018 29.6941C14.7033 29.6941 12.1866 28.9438 10.0232 27.5242 9.95041 27.4764 9.86596 27.4519 9.78096 27.4519 9.73603 27.4519 9.69099 27.4588 9.64717 27.4727L5.22772 28.8775 6.6544 24.6684C6.70054 24.5322 6.67747 24.382 6.59247 24.2658 4.94501 22.0148 4.07415 19.3552 4.07415 16.5742 4.07415 9.33896 10.008 3.45255 17.3017 3.45255 24.5945 3.45255 30.5277 9.33896 30.5277 16.5742 30.5278 23.8086 24.5947 29.6941 17.3018 29.6941Z" fill="#1BD741" transform="matrix(1.02941 0 -0 1 380 299)"/></g></g></g></g></svg>