<svg width="53" height="54" xmlns="http://www.w3.org/2000/svg" xmlns:xlink="http://www.w3.org/1999/xlink" overflow="hidden"><defs><clipPath id="clip0"><path d="M470 353 523 353 523 407 470 407Z" fill-rule="evenodd" clip-rule="evenodd"/></clipPath><clipPath id="clip1"><path d="M476 361 517 361 517 398 476 398Z" fill-rule="evenodd" clip-rule="evenodd"/></clipPath><clipPath id="clip2"><path d="M476 361 517 361 517 398 476 398Z" fill-rule="evenodd" clip-rule="evenodd"/></clipPath><clipPath id="clip3"><path d="M476 361 517 361 517 398 476 398Z" fill-rule="evenodd" clip-rule="evenodd"/></clipPath></defs><g clip-path="url(#clip0)" transform="translate(-470 -353)"><path d="M471 364.86C471 358.862 475.862 354 481.86 354L512.14 354C518.138 354 523 358.862 523 364.86L523 395.14C523 401.138 518.138 406 512.14 406L481.86 406C475.862 406 471 401.138 471 395.14Z" fill="#FFFFFF" fill-rule="evenodd" fill-opacity="0.101961"/><g clip-path="url(#clip1)"><g clip-path="url(#clip2)"><g clip-path="url(#clip3)"><path d="M26.2083 31.6042 10.7917 31.6042C6.16667 31.6042 3.08333 29.2917 3.08333 23.8958L3.08333 13.1042C3.08333 7.70833 6.16667 5.39583 10.7917 5.39583L26.2083 5.39583C30.8333 5.39583 33.9167 7.70833 33.9167 13.1042L33.9167 23.8958C33.9167 29.2917 30.8333 31.6042 26.2083 31.6042Z" stroke="#1494D4" stroke-width="2.31252" stroke-linejoin="round" stroke-miterlimit="10" fill="#FFFFFF" transform="matrix(1.10811 0 -0 1 476 361)"/><path d="M28.9368 11.9769 20.3851 18.5849C19.2747 19.4429 17.725 19.4429 16.6145 18.5849L8.06289 11.9769" stroke="#1494D4" stroke-width="2.31252" fill="#FFFFFF" transform="matrix(1.10811 0 -0 1 476 361)"/></g></g></g></g></svg>