<svg width="54" height="54" xmlns="http://www.w3.org/2000/svg" xmlns:xlink="http://www.w3.org/1999/xlink" overflow="hidden"><defs><clipPath id="clip0"><path d="M276 289 330 289 330 343 276 343Z" fill-rule="evenodd" clip-rule="evenodd"/></clipPath><clipPath id="clip1"><path d="M282 295 323 295 323 336 282 336Z" fill-rule="evenodd" clip-rule="evenodd"/></clipPath><clipPath id="clip2"><path d="M282 295 323 295 323 336 282 336Z" fill-rule="evenodd" clip-rule="evenodd"/></clipPath><clipPath id="clip3"><path d="M282 295 323 295 323 336 282 336Z" fill-rule="evenodd" clip-rule="evenodd"/></clipPath><linearGradient x1="302.5" y1="297.563" x2="302.5" y2="333.438" gradientUnits="userSpaceOnUse" spreadMethod="pad" id="fill4"><stop offset="0" stop-color="#37BBFE"/><stop offset="1" stop-color="#007DBB"/></linearGradient></defs><g clip-path="url(#clip0)" transform="translate(-276 -289)"><path d="M277 300.86C277 294.862 281.862 290 287.86 290L318.14 290C324.138 290 329 294.862 329 300.86L329 331.14C329 337.138 324.138 342 318.14 342L287.86 342C281.862 342 277 337.138 277 331.14Z" fill="#FFFFFF" fill-rule="evenodd" fill-opacity="0.101961"/><g clip-path="url(#clip1)"><g clip-path="url(#clip2)"><g clip-path="url(#clip3)"><path d="M320.438 315.5C320.438 325.407 312.407 333.438 302.5 333.438 292.593 333.438 284.563 325.407 284.563 315.5 284.563 305.593 292.593 297.563 302.5 297.563 312.407 297.563 320.438 305.593 320.438 315.5Z" fill="url(#fill4)"/><path d="M311.452 308.08C311.611 307.048 310.63 306.233 309.712 306.636L291.436 314.661C290.778 314.949 290.826 315.946 291.509 316.164L295.278 317.364C295.997 317.593 296.776 317.474 297.404 317.04L305.902 311.17C306.158 310.993 306.437 311.357 306.218 311.583L300.102 317.889C299.508 318.501 299.626 319.537 300.34 319.985L307.188 324.28C307.956 324.761 308.944 324.277 309.088 323.349L311.452 308.08Z" fill="#FFFFFF"/></g></g></g></g></svg>