<svg width="24" height="24" viewBox="0 0 24 24" fill="none" xmlns="http://www.w3.org/2000/svg">
<path fill-rule="evenodd" clip-rule="evenodd" d="M4.46398 15.4645C5.40166 14.5268 6.67343 14 7.99951 14H15.9995C17.3256 14 18.5974 14.5268 19.535 15.4645C20.4727 16.4021 20.9995 17.6739 20.9995 19V21C20.9995 21.5523 20.5518 22 19.9995 22C19.4472 22 18.9995 21.5523 18.9995 21V19C18.9995 18.2044 18.6834 17.4413 18.1208 16.8787C17.5582 16.3161 16.7952 16 15.9995 16H7.99951C7.20386 16 6.4408 16.3161 5.87819 16.8787C5.31558 17.4413 4.99951 18.2043 4.99951 19V21C4.99951 21.5523 4.5518 22 3.99951 22C3.44723 22 2.99951 21.5523 2.99951 21V19C2.99951 17.6739 3.5263 16.4021 4.46398 15.4645Z" fill="white"/>
<path fill-rule="evenodd" clip-rule="evenodd" d="M12.0005 3.99963C10.3436 3.99963 9.00049 5.34278 9.00049 6.99963C9.00049 8.65649 10.3436 9.99963 12.0005 9.99963C13.6573 9.99963 15.0005 8.65649 15.0005 6.99963C15.0005 5.34278 13.6573 3.99963 12.0005 3.99963ZM7.00049 6.99963C7.00049 4.23821 9.23906 1.99963 12.0005 1.99963C14.7619 1.99963 17.0005 4.23821 17.0005 6.99963C17.0005 9.76106 14.7619 11.9996 12.0005 11.9996C9.23906 11.9996 7.00049 9.76106 7.00049 6.99963Z" fill="white"/>
</svg>
