<svg width="24" height="24" viewBox="0 0 24 24" fill="none" xmlns="http://www.w3.org/2000/svg">
<g clip-path="url(#clip0_1916_56912)">
<path d="M20.0001 22.9C19.9001 22.9 19.8001 22.9 19.7001 22.9C16.5001 22.5 13.3001 21.4 10.6001 19.7C8.1001 18.1 5.9001 15.9 4.3001 13.4C2.5001 10.7 1.4001 7.50003 1.1001 4.30002C1.1001 3.50003 1.3001 2.70002 1.8001 2.10002C2.3001 1.50002 3.0001 1.10002 3.8001 1.00002C3.9001 1.00002 4.0001 1.00002 4.1001 1.00002H7.1001C8.6001 1.00002 9.9001 2.10002 10.1001 3.60002C10.2001 4.50002 10.4001 5.40002 10.7001 6.20003C11.1001 7.30002 10.8001 8.50003 10.0001 9.40003L9.3001 10.1C10.5001 11.9 12.0001 13.5 13.9001 14.7L14.6001 14C15.4001 13.2 16.7001 12.9 17.8001 13.3C18.6001 13.6 19.5001 13.8 20.4001 13.9C21.9001 14.1 23.0001 15.4 23.0001 16.9V19.9C23.0001 20.7 22.7001 21.5 22.1001 22C21.5001 22.5 20.8001 22.9 20.0001 22.9ZM7.1001 3.00002H4.1001C3.8001 3.00002 3.5001 3.20002 3.3001 3.40002C3.2001 3.60002 3.1001 3.80002 3.1001 4.10002C3.4001 7.00003 4.4001 9.80003 6.0001 12.3C7.5001 14.6 9.4001 16.6 11.7001 18C14.2001 19.6 17.0001 20.6 19.9001 20.9C20.3001 20.9 20.5001 20.8 20.7001 20.6C20.9001 20.4 21.0001 20.2 21.0001 19.9V16.9C21.0001 16.4 20.6001 16 20.1001 15.9C19.1001 15.8 18.1001 15.5 17.1001 15.1C16.7001 15 16.3001 15 16.0001 15.3L14.7001 16.6C14.4001 16.9 13.9001 17 13.5001 16.8C10.8001 15.3 8.6001 13.1 7.1001 10.4C7.0001 10 7.1001 9.50003 7.4001 9.20003L8.7001 7.90003C8.9001 7.70003 9.0001 7.20003 8.9001 6.90003C8.5001 5.90003 8.3001 4.90002 8.1001 3.90002C8.1001 3.40002 7.6001 3.00002 7.1001 3.00002ZM19.0001 10C18.5001 10 18.1001 9.70003 18.0001 9.20003C17.7001 7.60003 16.4001 6.40002 14.8001 6.00003C14.3001 5.90002 13.9001 5.40003 14.0001 4.80002C14.1001 4.30002 14.6001 3.90002 15.2001 4.00002C17.6001 4.50002 19.5001 6.30003 19.9001 8.70003C20.0001 9.20003 19.7001 9.80003 19.1001 9.90003C19.1001 9.90003 19.1001 10 19.0001 10ZM23.0001 9.90003C22.5001 9.90003 22.1001 9.50003 22.0001 9.00003C21.6001 5.30003 18.7001 2.40002 14.9001 1.90002C14.4001 1.80002 14.0001 1.30002 14.0001 0.800025C14.0001 0.300025 14.6001 -0.0999756 15.1001 -0.0999756C19.8001 0.400024 23.4001 4.00003 23.9001 8.70003C24.0001 9.20003 23.6001 9.70003 23.0001 9.80003C23.1001 9.90003 23.0001 9.90003 23.0001 9.90003Z" fill="#05203E"/>
</g>
<defs>
<clipPath id="clip0_1916_56912">
<rect width="24" height="24" fill="white"/>
</clipPath>
</defs>
</svg>
