<svg width="30" height="30" viewBox="0 0 30 30" fill="none" xmlns="http://www.w3.org/2000/svg">
<path d="M1 16.5517C1.48276 16.5517 5.15172 14.331 5.15172 14.331L9.01379 24.9517L17.9931 4H28.8069" stroke="#FF8E24" stroke-width="2" stroke-miterlimit="10" stroke-linecap="round" stroke-linejoin="round"/>
<path d="M26.1037 14.4284C26.1037 14.4284 24.4623 9.98702 20.0209 12.1112C17.9934 13.0767 16.352 17.4215 17.3175 19.3525C17.8003 20.318 19.152 21.2836 20.6003 21.187C21.7589 21.0905 23.014 20.2215 23.6899 19.3525C25.2347 17.3249 27.0692 11.2422 27.0692 11.2422" stroke="#FF8E24" stroke-width="2" stroke-miterlimit="10" stroke-linecap="round" stroke-linejoin="round"/>
<path d="M25.1382 16.9375C25.1382 16.9375 24.5589 20.7996 25.6209 21.3789C26.4899 21.8616 29.0002 19.9306 29.0002 19.9306" stroke="#FF8E24" stroke-width="2" stroke-miterlimit="10" stroke-linecap="round" stroke-linejoin="round"/>
</svg>
