<svg width="30" height="30" viewBox="0 0 30 30" fill="none" xmlns="http://www.w3.org/2000/svg">
<path d="M21.0358 8.75191C21.0358 6.98245 19.5401 5.55003 17.6926 5.55003C17.6046 5.55003 17.4286 5.55003 17.3407 5.55003C17.5166 5.12873 17.6926 4.70743 17.6926 4.20187C17.6926 2.43242 16.1969 1 14.4373 1C13.2056 1 12.1499 1.67408 11.622 2.60094C11.0061 1.8426 10.0384 1.33704 8.98261 1.33704C7.13504 1.4213 5.63938 2.85372 5.63938 4.62317C5.63938 4.96021 5.72736 5.38151 5.81534 5.71855C4.23171 5.88707 3 7.15097 3 8.75191C3 10.5214 4.49565 11.9538 6.34322 11.9538C6.51918 11.9538 6.69514 11.9538 6.8711 11.8695C6.4312 12.3751 6.25524 12.9649 6.25524 13.639C6.25524 15.4084 7.75089 16.7566 9.59846 16.7566C10.7422 16.7566 11.71 16.251 12.2378 15.4084C12.8537 16.1668 13.8215 16.7566 14.8772 16.7566C16.7248 16.7566 18.1325 15.3242 18.1325 13.639C18.1325 12.9649 17.9565 12.3751 17.6046 11.9538H17.6926C19.5401 11.9538 21.0358 10.5214 21.0358 8.75191Z" stroke="#00BD79" stroke-width="2" stroke-miterlimit="10" stroke-linecap="round" stroke-linejoin="round"/>
<path d="M12.0181 11.0811C13.2357 11.0811 14.2227 10.0941 14.2227 8.8765C14.2227 7.65892 13.2357 6.67188 12.0181 6.67188C10.8005 6.67188 9.81348 7.65892 9.81348 8.8765C9.81348 10.0941 10.8005 11.0811 12.0181 11.0811Z" stroke="#00BD79" stroke-width="2" stroke-miterlimit="10" stroke-linecap="round" stroke-linejoin="round"/>
<path d="M12.2568 16.7578V29.0013" stroke="#00BD79" stroke-width="2" stroke-miterlimit="10" stroke-linecap="round" stroke-linejoin="round"/>
<path d="M12.2568 25.4629L19.8134 21.8281" stroke="#00BD79" stroke-width="2" stroke-miterlimit="10" stroke-linecap="round" stroke-linejoin="round"/>
<path d="M27.0834 19.148C27.0834 19.148 21.8225 17.4263 18.1877 19.148C15.1268 20.5828 15.5094 23.835 15.5094 23.835C15.5094 23.835 18.1877 26.5133 21.2486 25.3654C26.7008 23.4524 27.0834 19.148 27.0834 19.148Z" stroke="#00BD79" stroke-width="2" stroke-miterlimit="10" stroke-linecap="round" stroke-linejoin="round"/>
</svg>
