<svg width="30" height="30" viewBox="0 0 30 30" fill="none" xmlns="http://www.w3.org/2000/svg">
<path d="M14.9454 9.43171C14.9454 7.52521 12.6574 6 9.82473 6C6.99204 6 4.7041 7.52521 4.7041 9.43171V20.3941C4.7041 20.3941 8.51733 15.8185 14.9454 19.9175V9.43171Z" stroke="#27B8E4" stroke-width="2" stroke-miterlimit="10" stroke-linecap="round" stroke-linejoin="round"/>
<path d="M4.26848 10.0039H1V22.5868H12.4397" stroke="#27B8E4" stroke-width="2" stroke-miterlimit="10" stroke-linecap="round" stroke-linejoin="round"/>
<path d="M14.9453 9.43171C14.9453 7.52521 17.2333 6 20.0659 6C22.8986 6 25.1866 7.52521 25.1866 9.43171V20.3941C25.1866 20.3941 21.3733 15.8185 14.9453 19.9175V9.43171" stroke="#27B8E4" stroke-width="2" stroke-miterlimit="10" stroke-linecap="round" stroke-linejoin="round"/>
<path d="M25.7318 10.0039H29.0002V22.5868H17.5605" stroke="#27B8E4" stroke-width="2" stroke-miterlimit="10" stroke-linecap="round" stroke-linejoin="round"/>
<path d="M17.5605 22.5859C17.5605 23.4439 16.471 24.1111 15.0547 24.1111C13.6383 24.1111 12.5488 23.4439 12.5488 22.5859" stroke="#27B8E4" stroke-width="2" stroke-miterlimit="10" stroke-linecap="round" stroke-linejoin="round"/>
</svg>
