<svg width="30" height="30" viewBox="0 0 30 30" fill="none" xmlns="http://www.w3.org/2000/svg">
<path d="M1 21.4735C1.35897 22.4719 2.61538 24.1692 4.76923 22.9711C7.35385 19.3769 13.3846 9.49278 16.0769 5L12.8462 23.9695C11.2308 19.3103 6.81539 10.7907 2.07692 13.9856C1 15.9823 1.53846 17.9791 16.0769 17.4799M26.3077 14.9839C25.2308 14.152 22.5385 12.9872 20.3846 14.9839C18.2308 16.9807 18.0513 20.1423 18.2308 21.4735C18.4103 22.8047 20.3846 25.4671 23.0769 22.9711C23.4139 22.5025 24.1392 21.3567 24.6923 19.9759M26.8462 13.4864C26.2997 15.1074 25.5533 17.8265 24.6923 19.9759M29 22.9711C27.4224 24.1359 24.5223 25.1676 24.6923 19.9759" stroke="#27B8E4" stroke-width="2" stroke-miterlimit="10" stroke-linecap="round" stroke-linejoin="round"/>
</svg>
