<svg width="234" height="93" viewBox="0 0 234 93" fill="none" xmlns="http://www.w3.org/2000/svg">
<path d="M109.277 38.3372L150.531 7.43603C150.878 7.17608 151.353 7.1694 151.707 7.41948L195.5 38.3372V83C195.5 83.5523 195.052 84 194.5 84H110.277C109.725 84 109.277 83.5523 109.277 83V38.3372Z" fill="white"/>
<path d="M109.277 38.3372L150.531 7.43603C150.878 7.17608 151.353 7.1694 151.707 7.41948L195.5 38.3372M109.277 38.3372L150.641 61.3535C150.935 61.5175 151.293 61.5219 151.592 61.3653L195.5 38.3372M109.277 38.3372V83C109.277 83.5523 109.725 84 110.277 84H194.5C195.052 84 195.5 83.5523 195.5 83V38.3372" stroke="#2496FF" stroke-width="4"/>
<path d="M120.016 18.3125V43.5617C120.016 43.9157 120.203 44.2433 120.508 44.4231L150.361 62.0256C150.663 62.2037 151.036 62.2106 151.344 62.044L181.651 45.6653C181.974 45.4906 182.176 45.1529 182.176 44.7855V18.3125C182.176 17.7602 181.728 17.3125 181.176 17.3125H121.016C120.463 17.3125 120.016 17.7602 120.016 18.3125Z" fill="white"/>
<path d="M136.968 29.8125H166.165M136.968 39.8125H166.165M151.344 62.044L181.651 45.6653C181.974 45.4906 182.176 45.1529 182.176 44.7855V18.3125C182.176 17.7602 181.728 17.3125 181.176 17.3125H121.016C120.463 17.3125 120.016 17.7602 120.016 18.3125V43.5617C120.016 43.9157 120.203 44.2433 120.508 44.4231L150.361 62.0256C150.663 62.2037 151.036 62.2106 151.344 62.044Z" stroke="#2496FF" stroke-width="4" stroke-linecap="round"/>
<line x1="60.2891" y1="29.4912" x2="87.4718" y2="29.4912" stroke="#2496FF" stroke-width="4" stroke-linecap="round"/>
<line x1="87.4707" y1="46.4443" x2="39.4994" y2="46.4443" stroke="#2496FF" stroke-width="4" stroke-linecap="round"/>
<line x1="86.3555" y1="60.1514" x2="53.9756" y2="60.1514" stroke="#2496FF" stroke-width="4" stroke-linecap="round"/>
</svg>
