<svg width="81" height="59" viewBox="0 0 81 59" fill="none" xmlns="http://www.w3.org/2000/svg">
<path d="M79.2595 1.01367H1.58203V57.0137H79.2595V1.01367Z" stroke="white" stroke-width="1.98125" stroke-miterlimit="10"/>
<path d="M20.9082 37.5071C22.2028 37.5071 25.5318 37.227 27.9362 35.4538V36.8538H32.8372V30.7871L34.8716 28.6404L39.4028 36.8538H45.3211L38.4782 25.1871L45.1362 17.8138H39.033L32.8372 25.0004V11.0938H27.9362V13.3338C26.4566 11.7471 23.9598 10.4404 20.1684 10.4404C11.9384 10.4404 10.3663 15.4805 10.3663 18.3738C10.3663 22.2938 12.4007 24.4405 16.0071 25.2805L21.0932 26.5871C23.7749 27.2404 25.7169 27.8004 25.7169 29.7604C25.7169 32.4671 22.9427 33.1204 20.3534 33.1204C15.7297 33.1204 14.99 30.4138 14.99 28.9205H10.0889C10.0889 32.0937 11.6609 37.5071 20.9082 37.5071ZM24.3298 22.2005L18.1341 20.7071C17.1168 20.4271 15.4523 20.0538 15.4523 18.0004C15.4523 15.667 17.8566 14.9205 19.891 14.9205C24.5147 14.9205 24.977 17.6271 25.0695 18.8404H28.0287V23.6004C26.9189 22.9471 25.6243 22.4804 24.3298 22.2005Z" fill="white"/>
<path d="M14.3416 48.7077C13.8791 48.7077 13.4168 48.7077 13.1394 48.6144V47.121C13.3243 47.2144 13.5093 47.3077 13.7867 47.3077C14.1566 47.3077 14.434 47.121 14.619 46.8411V46.7478L11.105 40.1211H13.1394L15.4512 44.881L17.2082 40.1211H19.2426L16.191 47.3077C16.0061 47.6811 15.8212 47.9611 15.6361 48.1477C15.3587 48.4278 15.1738 48.521 14.8964 48.7077C14.7114 48.7077 14.434 48.7077 14.3416 48.7077Z" fill="white"/>
<path d="M24.6074 48.6144H22.9429V46.001C22.758 46.0944 22.4806 46.1877 22.1106 46.3744C21.7407 46.561 21.3708 46.561 21.001 46.561C20.3536 46.561 19.7988 46.3744 19.4289 46.001C19.059 45.6278 18.874 45.0678 18.874 44.321V42.1744H20.5385V44.2278C20.5385 44.7878 20.9085 45.0678 21.6482 45.0678C21.8332 45.0678 22.1106 44.9744 22.3881 44.8811C22.6655 44.7878 22.8504 44.6944 22.9429 44.6011V42.0811H24.6074V48.6144Z" fill="white"/>
<path d="M31.544 47.3998C31.544 47.7731 31.544 47.9598 31.6365 48.1465C31.729 48.2397 31.8214 48.3331 31.9139 48.4264V48.7065H30.1569C30.0645 48.4264 30.0645 48.2397 29.972 47.9598C29.6946 48.2397 29.4171 48.4264 29.1397 48.6131C28.8623 48.7998 28.4 48.8932 27.9375 48.8932C27.5676 48.8932 27.2902 48.7998 27.0128 48.7065C26.7354 48.6131 26.458 48.3331 26.273 48.0532C26.0881 47.7731 25.9956 47.3998 25.9956 47.0264C25.9956 46.6532 26.0881 46.2798 26.273 45.9997C26.458 45.7198 26.643 45.5331 26.9204 45.3464C27.1978 45.1598 27.4752 45.0665 27.845 45.0665L29.3246 44.8798C29.6946 44.7864 29.8795 44.6931 29.8795 44.4132C29.8795 44.1331 29.7871 43.9464 29.602 43.8531C29.4171 43.7597 29.1397 43.7597 28.8623 43.7597C28.4924 43.7597 28.215 43.8531 28.1226 44.0398C27.9375 44.2265 27.9375 44.4132 27.845 44.6931H26.273C26.3655 44.0398 26.458 43.5731 26.7354 43.2931C27.0128 43.0132 27.2902 42.7331 27.7526 42.6398C28.1226 42.5464 28.5849 42.4531 29.0472 42.4531C29.4171 42.4531 29.7871 42.5464 30.1569 42.6398C30.5268 42.7331 30.8967 42.9198 31.1742 43.1998C31.4516 43.4798 31.544 43.8531 31.544 44.3198V47.3998ZM29.972 45.5331C29.7871 45.7198 29.4171 45.8131 28.8623 45.9065C28.5849 45.9065 28.4 45.9997 28.3075 46.0931C28.1226 46.1864 28.0301 46.2798 27.9375 46.3731C27.845 46.4665 27.7526 46.6532 27.7526 46.9331C27.7526 47.2131 27.845 47.3998 28.0301 47.4931C28.215 47.5864 28.4 47.6798 28.5849 47.6798C28.8623 47.6798 29.0472 47.5864 29.3246 47.4931C29.5096 47.3998 29.6946 47.2131 29.8795 47.0264C30.0645 46.8398 30.0645 46.6532 30.0645 46.3731V45.5331H29.972Z" fill="white"/>
<path d="M38.3859 46.2811C38.3859 46.4678 38.2934 46.7477 38.201 47.0278C38.1085 47.3078 37.9236 47.5877 37.7386 47.8678C37.5537 48.1477 37.2762 48.3344 36.8139 48.5211C36.444 48.7078 35.9817 48.801 35.4267 48.801C34.8719 48.801 34.4096 48.7078 34.0396 48.5211C33.6698 48.3344 33.3924 48.0545 33.115 47.7744C32.93 47.4944 32.7451 47.1211 32.6526 46.7477C32.5601 46.3744 32.5601 46.001 32.5601 45.6278C32.5601 44.8811 32.6526 44.321 32.8376 43.761C33.0225 43.2011 33.3924 42.8278 33.8547 42.5477C34.3171 42.2677 34.8719 42.0811 35.6117 42.0811C35.9817 42.0811 36.444 42.1744 36.8139 42.2677C37.1837 42.4544 37.5537 42.6411 37.8311 43.0144C38.1085 43.3878 38.2934 43.8544 38.3859 44.5077H36.7214C36.6289 43.8544 36.2591 43.4811 35.6117 43.4811C35.3343 43.4811 35.0569 43.5745 34.8719 43.761C34.687 43.9477 34.5021 44.1344 34.4096 44.4144C34.3171 44.6944 34.3171 44.9744 34.3171 45.2544C34.3171 45.6278 34.3171 45.9077 34.4096 46.1877C34.5021 46.4678 34.5945 46.7477 34.7795 46.9344C34.9644 47.1211 35.2418 47.3078 35.6117 47.3078C35.8892 47.3078 36.0741 47.2144 36.2591 47.1211C36.444 47.0278 36.5365 46.8411 36.6289 46.6544C36.7214 46.4678 36.7214 46.3744 36.7214 46.1877H38.3859V46.2811Z" fill="white"/>
<path d="M40.8837 48.6143V43.5743H39.0342V42.2676H44.4902V43.5743H42.6407V48.6143H40.8837Z" fill="white"/>
<path d="M51.055 48.6143H49.3905V46.0943H47.0786V48.6143H45.4141V42.2676H47.0786V44.7876H49.3905V42.2676H51.055V48.6143Z" fill="white"/>
<path d="M58.1765 48.6143H56.512V44.7876L54.2926 48.6143H52.5356V42.2676H54.2002V46.0943L56.4196 42.2676H58.1765V48.6143Z" fill="white"/>
<path d="M61.3178 48.6143H59.6533V42.2676H61.3178V44.6942L63.4447 42.2676H65.479L63.2597 44.6942L65.5715 48.6143H63.5371L61.9651 45.9076L61.3178 46.6543V48.6143Z" fill="white"/>
</svg>
