<svg width="35" height="35" viewBox="0 0 35 35" fill="none" xmlns="http://www.w3.org/2000/svg">
<path d="M17.2679 8.50727C18.6453 8.50727 19.7657 9.62766 19.7657 11.0051C19.7657 12.3813 18.645 13.5017 17.2679 13.5017C15.8914 13.5017 14.7707 12.3813 14.7707 11.0051C14.7704 9.62737 15.8917 8.50727 17.2679 8.50727ZM17.2679 17.0355C20.595 17.0355 23.3007 14.3307 23.3007 11.0051C23.3007 7.67766 20.5953 4.97168 17.2679 4.97168C13.9411 4.97168 11.2351 7.67795 11.2351 11.0051C11.2351 14.3307 13.9411 17.0355 17.2679 17.0355ZM19.7085 21.9563C20.9495 21.6737 22.1339 21.1833 23.2115 20.5059C23.6082 20.2563 23.8895 19.8593 23.9935 19.4023C24.0975 18.9453 24.0157 18.4657 23.7662 18.069C23.6427 17.8724 23.4817 17.702 23.2924 17.5677C23.1031 17.4333 22.8891 17.3376 22.6628 17.286C22.4364 17.2344 22.2021 17.2279 21.9733 17.2669C21.7444 17.306 21.5255 17.3897 21.329 17.5134C18.8575 19.0673 15.6765 19.0661 13.207 17.5134C13.0106 17.3897 12.7917 17.3059 12.5629 17.2669C12.334 17.2278 12.0998 17.2343 11.8734 17.2859C11.6471 17.3375 11.4331 17.4332 11.2438 17.5676C11.0545 17.702 10.8936 17.8724 10.7702 18.069C10.5205 18.4656 10.4386 18.9451 10.5425 19.4021C10.6464 19.8591 10.9275 20.2561 11.324 20.5059C12.4015 21.183 13.5856 21.6734 14.8264 21.9563L11.454 25.3293C11.1226 25.6609 10.9364 26.1105 10.9365 26.5792C10.9366 27.048 11.1229 27.4976 11.4544 27.829C11.7859 28.1604 12.2356 28.3465 12.7043 28.3465C13.1731 28.3464 13.6227 28.1601 13.9541 27.8286L17.2673 24.5147L20.5826 27.8288C20.7465 27.993 20.9412 28.1232 21.1555 28.2121C21.3698 28.3009 21.5995 28.3467 21.8315 28.3467C22.0635 28.3467 22.2932 28.3009 22.5075 28.2121C22.7218 28.1232 22.9164 27.993 23.0804 27.8288C23.2448 27.6649 23.3752 27.4702 23.4642 27.2558C23.5532 27.0414 23.599 26.8115 23.599 26.5794C23.599 26.3472 23.5532 26.1174 23.4642 25.9029C23.3752 25.6885 23.2448 25.4938 23.0804 25.3299L19.7085 21.9563Z" fill="white"/>
</svg>
