<svg width="35" height="35" viewBox="0 0 35 35" fill="none" xmlns="http://www.w3.org/2000/svg">
<path d="M6.93018 15.8262C6.93018 15.8262 16.9551 11.7834 20.4319 10.3598C21.7647 9.79041 26.2846 7.96824 26.2846 7.96824C26.2846 7.96824 28.3708 7.1711 28.1969 9.10708C28.1389 9.90429 27.6754 12.6944 27.2118 15.7123C26.5164 19.9829 25.7631 24.6521 25.7631 24.6521C25.7631 24.6521 25.6472 25.9618 24.6621 26.1895C23.677 26.4173 22.0544 25.3924 21.7647 25.1646C21.5329 24.9938 17.4187 22.4314 15.912 21.1787C15.5064 20.837 15.0428 20.1538 15.9699 19.3566C18.0561 17.4775 20.5478 15.1429 22.0544 13.6624C22.7498 12.9791 23.4452 11.3848 20.5478 13.3207C16.4336 16.1109 12.3772 18.7302 12.3772 18.7302C12.3772 18.7302 11.4501 19.2996 9.71166 18.7871C7.97318 18.2747 5.94501 17.5914 5.94501 17.5914C5.94501 17.5914 4.55435 16.7373 6.93018 15.8262Z" fill="white"/>
</svg>
