<svg width="30" height="30" viewBox="0 0 30 30" fill="none" xmlns="http://www.w3.org/2000/svg">
<path d="M23.9358 8.05143C22.6467 5.65741 20.4369 4 17.7666 4C12.2419 4 11.6895 9.98507 11.6895 9.98507" stroke="#00BD79" stroke-width="2" stroke-miterlimit="10" stroke-linecap="round" stroke-linejoin="round"/>
<path d="M13.5309 10.3516C13.5309 10.3516 1.2845 10.3516 1.00827 10.3516C1.00827 10.3516 0.271645 25.2682 12.7022 25.2682C22.2783 25.2682 25.7773 18.8227 25.409 13.0218" stroke="#00BD79" stroke-width="2" stroke-miterlimit="10" stroke-linecap="round" stroke-linejoin="round"/>
<path d="M28.9996 9.43195L23.9353 8.05078C23.9353 8.05078 22.7383 8.87948 22.7383 10.8131C22.7383 12.7468 25.3165 13.023 25.3165 13.023L28.9996 9.43195Z" stroke="#00BD79" stroke-width="2" stroke-miterlimit="10" stroke-linecap="round" stroke-linejoin="round"/>
<path d="M18.8711 9.5235C19.5831 9.5235 20.1602 8.94635 20.1602 8.23441C20.1602 7.52246 19.5831 6.94531 18.8711 6.94531C18.1592 6.94531 17.582 7.52246 17.582 8.23441C17.582 8.94635 18.1592 9.5235 18.8711 9.5235Z" stroke="#00BD79" stroke-width="2" stroke-miterlimit="10" stroke-linecap="round" stroke-linejoin="round"/>
<path d="M3.31055 10.3516C3.31055 10.3516 7.08575 19.099 12.4263 19.099C17.2143 19.099 19.148 15.1396 18.9638 15.1396C18.6876 15.1396 13.255 10.3516 13.255 10.3516" stroke="#00BD79" stroke-width="2" stroke-miterlimit="10" stroke-linecap="round" stroke-linejoin="round"/>
</svg>
