<svg width="25" height="24" viewBox="0 0 25 24" fill="none" xmlns="http://www.w3.org/2000/svg">
<path fill-rule="evenodd" clip-rule="evenodd" d="M5.1295 15.4645C6.06719 14.5268 7.33896 14 8.66504 14H16.665C17.9911 14 19.2629 14.5268 20.2006 15.4645C21.1383 16.4021 21.665 17.6739 21.665 19V21C21.665 21.5523 21.2173 22 20.665 22C20.1128 22 19.665 21.5523 19.665 21V19C19.665 18.2044 19.349 17.4413 18.7864 16.8787C18.2237 16.3161 17.4607 16 16.665 16H8.66504C7.86939 16 7.10633 16.3161 6.54372 16.8787C5.98111 17.4413 5.66504 18.2043 5.66504 19V21C5.66504 21.5523 5.21732 22 4.66504 22C4.11275 22 3.66504 21.5523 3.66504 21V19C3.66504 17.6739 4.19182 16.4021 5.1295 15.4645Z" fill="#05203E"/>
<path fill-rule="evenodd" clip-rule="evenodd" d="M12.666 3.99976C11.0092 3.99976 9.66602 5.3429 9.66602 6.99976C9.66602 8.65661 11.0092 9.99976 12.666 9.99976C14.3229 9.99976 15.666 8.65661 15.666 6.99976C15.666 5.3429 14.3229 3.99976 12.666 3.99976ZM7.66602 6.99976C7.66602 4.23833 9.90459 1.99976 12.666 1.99976C15.4274 1.99976 17.666 4.23833 17.666 6.99976C17.666 9.76118 15.4274 11.9998 12.666 11.9998C9.90459 11.9998 7.66602 9.76118 7.66602 6.99976Z" fill="#05203E"/>
</svg>
